P1
# Jsem mega funny KoleckOLP 2020 (C) Make it stop.
98 100
0111100111111100111011111111100000000000000000000000000000000000011111
1111000000000000000011111111111100011111110111101111111110000000000000
0000000000000000000001111111111100000000000011101111111111111001111111
0011100011101000000000000000000000000000000000000111111111111111100000
0000001111111111111001111110001000000000000000000000000000000000000000
0000000111111111111111111110000000011111111111100000000000000011000000
0000000000000000000000000000000000111111111111111111111100000001111111
1110000000000110011000000001110000000000000000000000000000111111111111
1111111111111000000001111111110000000000000001110000000111100000000000
0000000000000010111111111111111111111111100000000111111110000000000000
0011110000001111100000000000000000000000111111111111111111111110111110
0000001111111110000000000000001111100000111100000000000000000000000011
1111111111111111111100011110000000111111111000000000000000001110000000
0000000000000000000000111101111111111111111111100000111000000011111111
1100000000000000000000000000000000000000000000000000100000011111111111
1110000000011000000011111111110000000000000000000000000000000000000000
0001111111100000000111111111010000000000000000001111111111000000000000
0000000000000000000000000000000111111010000000000000011000000000000000
0000001111111110000000000000000000000000000000000111000000000111001000
0000000000000000000000000000000000111111111000000000000000000000000000
0000001111000000000111001000011000000000000000000000000000000011111111
1000000000000000000000000000000000011100000000011100110011111110000000
0000000000000000000011111111100000000000000000000000000000000000110000
0000000101111111111111111100000010000000000000001111111110000000000000
0000000000000000000001111111110001110111111111110111111001001000000000
0000001111111110000000000000000000000000000000001111111111111111011111
1111110111111001011000000000000000111111111000000000000000000000000000
0000001111111111111111011101111111011111000001100000000000000011111111
1000000000000000000000000000000000011111111111111001100111111100111100
0011111110000000000011111111100000000000000000000000000000000001111111
1111100001111111000000110001111111111000000000001111111110000000000000
0000000000000000011111111111111111000010111000000011110111111111111000
0000001111111110000000000000000000000000000000000111111111100001001011
0000000000001110001111100000000000111111111000000000000000000000000000
0000011111111111111011101100000000000000111000111100000000000011111111
1000000000000000000000000000000000011111111110100110111000000000000011
1000110000000000000111111111100000000000000000000000000011100000011111
1100111101111000000000000011110001000001110000011111111110000000000000
0000000000000011110000111111111100001111110000000000001111000100000001
0000011111111110000000000000000000000000000000001111111111111111111011
0000000000011111010011100000000001111111111000000000000000000000000000
0000011111111111111111111011100000000011111000111111100000000111111111
1000000000000000000000000000001111111111111111111111100111000000011111
1000111111110000000111111111100001100000000000000000011001111111111111
1111111111111111110000011111111111111111000000011111111110000011000000
0000000011111111111111111111111111111111111111110001110011011111111111
1111011111111110000011000000000000111111111111111111111111111111111111
1111000000010001011111111111111111111111111000000000000000000111111111
1111111111111111111111111111110100000001110001111111111111111111111111
1000001100000000001111111111111111111111111111111111111110010000000111
1111111111111111111111111111100000111000000011111111111111111111111111
1111111111111110001000000111111111111111111111111111111111000111110011
1111111111111111111111111111111111111111111001100000011111111111111111
1111111111111111001111111111111111111110011111111111111111111111111111
0001000000111111111111111111111111111111111100011111111111111111111001
1111111111111111111111111110000000000011111111111111111111100001111111
1110111111111111111101111111111111111111111111111111111000000000011111
1111111111111110000000000001111111111111111111111111111111111111111111
1111111111110000000000011111111111111111000000000000000001111111111111
1111111111111111111111111111111111111111000000000001111111111111111000
0000000000000001110011111111111111111111111111111111111111111111111100
0000000011111111111111111100000000000000000110001111111111111111111111
1111111111111111111111111100000000001111111111111111111000000000000000
0111111111111111111111111111111111111111111111111111110000000000111111
1111111111011000000000000000011111111111111111111111111111111111111111
1111111111100000000001111111111111111100000000000000000001111111111111
1111111111111111111111111111111111111110000000000111111111111111110000
0000000000000001111111111111111111111111111111111111111111111111111000
0000000111111111111111100000000000000000000111111111111111111111111111
1111111111111111111111111000000000011111111111111110000000000000000000
0111111111111111111111111111111111111111111111111111100001000011111111
1111111100000000000000000000010111111111111111111111111111111111111111
1111111111100011000011111111111111110000000000000000000001101111111111
1111111111111111111111111111111111111111101100001111111111111110000000
0000000000000001101111111111111111111111111111111111111111111111111110
1100001111111111111110000000000000000000000111111111111111111111111111
1111111111111111111111111110001001111111111111111000000000000000000000
0111111111111111111111111111111111111111111111111111111000001111111111
1111111000000000000000000000011111111111111111111111111111111111111111
1111111111110000001111111111111111000000000000000000000001111111111111
1111111111111111111111111111111111111110000001111111111111111100000000
0000000000000001111111111111111111111111111111111111111000111111110000
0011111111111111111100000000000000000000000111111111111111111111111111
1111111111100000111111110000011111111111111111110000000000000000000000
0111111111111111111111111111111111110000000011111111000111111111111111
1111110000000000000000000000011111111111111111111111111111111100000000
0111111110001111111111111111111111100000000000000000000001111111111111
1111111111111111110000000000011111111101111111111111110111111111000000
0000000000000001111111111111111111111111111000000000000001111111111111
1111111111100001111111100000000000000000000111111111111111111111111110
0000000000000011111111111111111111111100000011111110000000000000000000
0111111111111111111111111000000000000000001111111111111111111111000000
0000111111000000000000000000011111111111111111111100000000000000000000
1111111111111111111110000000000000111110000000000000000001111111111111
1111110000000000000000000001111111111111111111110000000000000001111000
0000000000000001111111111111111000000000000000000000000111111111111111
1111000000000000000000011000000000000000000111111111111110000000000000
0000000000000111111111111111111000000000000000000000000000000000000000
0111111111111100000000000000000000000000111111111111111110000000000000
0000000000000000000000000000011111111111100000000000000000000000001011
1111111111111100000000000000000000000000000000000000000001111111111100
0000000000000000000000011110001111111111100000000000000000000000000000
0000000000000001111111111100000000000000000000000011100000001111111100
0000000000000000000000000000000000000000000111111111100000000000000000
0000001111100000001111111000000000000000000000000000000000000000000000
0111111111000000000000000000000001100010000000011100000000000000000000
0000000000000000000000000000011111111100000000000000000000001100000100
0000010000000000000000000000000000000000000000000000000001111111100000
0000000000000000011100000110000010000000000000000000000000000000000000
0000000000000001111111100000000000000000000011100000001100011000000000
0000000000000000000000000000000000000000000111111110000001000000000000
0111000000001111011110000000000000000000000000000000000000000000000000
0111111100000000100000000000111101110000111111111000000000000000000000
0000000000000000000000000000011111110000000011000000000011111111111111
1111111100000000000000000000000000000000000000000000000001111111000000
0011000000000111111111111111111111111000000000000000000000000000000000
0000000000000001111110000000000100000000111111111111111111111111100000
0000000000000000000000000000000000000000000111111000000000000000000111
1111111111111111111111100000000000000000000000000000000000000000000000
0111111000000000111000000111111111111111111111111111000000000000000000
0000000000000000000000000000011111000000011111100000111111111111111111
1111111111000000000000000000000000000000000000000000000001111100001111
1111110000111111111111111111111111111000000000000000000000000000000000
0000000000000001111111111111111111100111111111101111111111111110000000
0000000000000000000000000000000000000000000111111111111111111110111111
1111001111111111111000000000000000000000000000000000000000000000000000
0111111111111111111111111111111100111111111110000000000000000000000000
0000000000000000000000000000011111111111111111111111111111110111111111
1100000000000000000000000000000000000000000000000000000001111111111111
1111111111111111100111111111100000000000000000000000000000000000000000
0000000000000001111111111111111111111111111110011111111100000000000000
0000000000000000000000000000000000000000000111111111111111111111111111
1110011111111100000000000000000000000000000000000000000000000000000000
0111111111111111111111111111110001111111110000000000000000000000000000
0000000000000000000000000000011111111111111111111111111111001111111111
0000000000000000000000000000000000000000000000000000000001111111111111
1111111111111110001111111110000000000000000000000000000000000000000000
0000000000000001111111111111111111111111111100111111111000000000000000
0000000000000000000000000000000000000000000111111111111111111111111111
1111111111111000000000000000000000000000000000000000000000000000000000
