P2
# Created by GIMP version 2.10.20 PNM plug-in
98 100
255
121
125
124
126
131
128
125
126
125
125
125
125
127
132
129
126
126
128
129
126
126
126
125
125
125
123
126
125
129
130
128
130
130
129
130
132
133
132
131
131
133
134
134
135
135
135
134
135
137
137
135
134
135
135
136
136
135
136
135
134
133
130
129
128
123
115
114
113
116
114
111
113
120
168
204
199
190
212
207
209
200
214
215
205
195
186
173
135
140
113
17
17
13
12
11
11
13
12
123
126
124
129
134
130
126
126
125
125
125
125
127
130
127
126
126
127
130
126
126
126
126
126
126
123
125
126
132
134
133
131
132
131
131
132
132
132
133
133
133
133
133
134
135
135
134
135
135
134
136
135
134
133
134
134
133
133
133
132
132
129
127
127
122
115
114
113
115
115
111
113
120
157
179
158
170
178
172
172
170
172
163
144
130
119
114
120
139
107
13
11
11
10
8
8
11
10
127
126
126
128
132
130
125
125
126
126
126
126
126
132
128
126
127
127
132
131
129
127
127
128
131
125
130
128
128
132
130
133
133
132
132
131
131
133
132
130
130
133
133
132
133
135
136
134
134
132
133
133
133
131
134
134
133
132
131
129
131
128
127
127
122
113
111
111
114
113
111
112
109
87
85
85
103
95
139
178
179
171
153
128
136
142
150
154
155
114
15
12
11
8
9
9
9
9
128
127
127
127
129
131
127
126
127
127
127
128
131
135
129
127
130
128
130
131
128
129
129
129
129
129
131
131
131
131
128
132
134
132
132
130
132
132
132
130
130
132
133
133
133
134
135
133
133
131
132
132
132
130
133
132
131
131
131
130
132
129
127
128
123
113
111
112
116
114
111
112
115
111
112
110
111
89
65
67
58
102
137
160
177
185
191
195
195
138
17
16
41
38
21
18
17
13
127
128
127
127
131
133
134
131
128
129
128
130
130
131
128
131
130
130
129
127
128
130
131
130
129
129
128
128
131
132
132
131
133
131
131
131
132
130
129
129
129
132
132
132
132
131
133
132
131
130
131
131
132
132
132
132
131
132
131
132
130
125
123
122
122
116
111
114
115
113
114
113
112
113
115
115
117
93
53
68
58
104
124
186
202
209
212
214
214
151
18
17
24
41
37
32
30
27
128
128
132
131
128
129
132
132
129
130
131
132
127
128
131
130
126
128
130
130
130
130
129
128
129
128
127
127
128
130
132
132
132
131
131
131
132
130
129
129
129
131
132
132
131
130
132
132
132
132
132
132
132
132
132
132
129
126
120
104
85
77
72
77
90
102
107
117
115
115
115
114
111
111
114
115
117
94
49
55
88
85
143
191
200
202
206
208
210
143
15
15
20
68
60
51
45
42
128
130
132
133
133
131
129
128
132
132
132
130
129
131
131
128
127
127
128
130
133
131
128
128
129
128
127
127
127
128
131
133
132
131
131
131
131
129
129
129
129
131
132
131
130
129
132
132
131
132
131
131
132
131
129
125
133
121
86
72
65
65
65
68
72
81
88
97
117
119
112
112
115
115
115
118
122
102
49
54
40
86
179
186
191
193
197
200
204
133
12
14
24
77
67
57
50
44
130
132
131
131
131
133
133
131
129
130
131
128
132
132
129
127
127
127
127
129
135
134
128
129
129
127
126
126
127
128
131
133
132
131
131
130
132
130
129
128
130
132
133
131
131
131
131
129
131
131
129
130
133
124
125
121
94
82
77
71
70
71
73
70
70
76
85
90
92
114
122
111
111
117
117
123
132
120
53
52
40
105
173
179
182
184
187
192
198
123
13
14
32
78
66
58
53
47
129
131
130
131
131
132
134
135
131
128
129
130
133
131
128
127
127
127
127
128
134
133
130
130
129
127
127
127
128
130
132
134
133
131
131
129
132
131
131
129
129
131
132
131
132
131
131
129
130
130
128
131
128
122
120
95
93
88
84
81
80
78
80
76
72
76
79
89
91
93
117
120
114
121
125
131
144
140
89
71
42
111
168
172
173
175
180
185
189
115
12
13
41
73
60
57
55
51
129
131
130
132
130
132
132
135
133
129
129
130
134
133
130
129
128
127
127
128
133
132
129
129
128
128
129
129
130
131
133
134
132
132
132
130
130
129
130
131
131
130
131
132
130
129
129
130
129
127
128
128
128
148
119
111
109
102
94
94
88
85
88
84
78
83
87
91
100
97
110
123
121
127
131
140
150
152
133
108
74
111
154
163
162
171
176
180
182
105
12
13
42
71
59
56
56
56
128
131
130
131
130
132
132
133
134
132
131
131
133
133
132
132
130
129
131
132
137
134
130
132
132
132
131
131
132
132
133
132
132
131
130
130
129
129
130
130
130
131
131
130
128
129
128
128
130
128
128
120
156
178
146
148
149
138
123
113
100
97
98
95
89
90
96
97
110
110
110
128
135
136
137
145
150
154
153
147
102
126
144
151
153
167
172
176
177
100
10
12
43
67
58
57
57
57
128
130
130
131
132
132
132
133
134
132
132
133
133
134
134
133
132
130
132
134
133
131
134
134
134
133
132
132
132
131
130
131
133
129
128
129
129
130
131
130
129
131
130
129
127
127
128
128
128
128
126
119
157
197
190
185
183
183
176
139
117
117
115
112
105
103
106
108
118
139
117
145
145
138
143
150
152
152
154
153
150
150
144
141
148
165
168
172
173
94
10
11
44
63
55
55
54
56
128
131
132
132
133
133
133
134
135
132
133
133
133
134
134
133
133
132
133
132
131
133
133
132
131
129
132
132
131
131
132
135
132
128
128
128
128
130
132
130
130
132
130
128
127
127
127
128
128
128
135
126
143
186
207
171
166
171
193
179
175
174
147
153
135
130
124
119
136
151
138
154
164
141
144
148
152
149
150
151
152
152
146
140
148
162
166
169
169
85
8
11
45
60
52
51
52
55
133
133
133
133
133
133
134
134
135
134
137
136
134
133
132
131
132
133
134
132
133
133
131
132
132
131
130
129
128
129
131
131
130
128
127
128
128
130
130
129
129
132
132
131
129
128
127
127
126
130
142
126
139
177
203
152
148
147
156
171
180
188
187
196
183
179
174
156
166
171
170
163
156
142
142
142
146
149
149
150
149
150
149
143
145
159
162
165
168
79
8
11
43
54
48
49
51
55
134
135
133
133
133
134
135
132
134
135
135
134
134
134
133
132
132
133
133
131
133
132
131
131
132
133
131
129
128
129
132
131
129
127
126
128
128
130
130
129
129
139
136
133
132
130
127
127
126
134
133
120
131
158
173
138
124
123
130
135
143
164
186
179
169
171
177
192
189
195
200
199
152
139
138
138
140
143
145
145
144
149
151
142
144
155
158
162
168
74
7
11
39
52
47
48
50
53
130
133
133
134
134
136
133
133
135
135
133
133
133
134
134
135
133
132
131
132
133
131
131
130
130
132
133
130
129
130
131
131
129
128
127
127
128
131
132
130
130
131
130
130
132
130
127
127
126
144
128
116
121
130
132
113
104
102
102
110
121
125
131
141
144
135
145
163
179
170
186
212
152
133
138
135
136
139
143
141
141
144
146
141
142
152
156
160
163
66
8
9
32
48
44
46
48
46
130
132
131
133
134
134
134
135
134
133
132
132
133
133
133
135
135
132
131
132
134
132
132
130
130
131
132
131
130
130
131
131
130
128
128
127
128
130
130
130
128
129
129
130
128
128
128
128
126
146
127
112
113
115
113
104
95
92
91
96
115
120
107
110
108
112
123
129
146
133
149
179
143
120
133
133
135
137
140
137
138
140
142
139
141
149
154
159
159
60
8
10
34
48
43
42
42
41
131
133
132
132
133
133
134
135
134
133
133
132
132
133
134
134
134
132
132
132
133
133
133
132
131
132
132
131
131
130
131
132
130
128
127
127
128
128
128
128
128
127
127
129
128
128
127
127
127
151
123
107
113
111
101
97
90
86
84
94
104
135
100
98
92
96
109
117
130
129
122
151
129
120
130
133
135
137
138
137
137
138
142
138
139
146
152
157
157
54
8
10
45
55
52
51
53
54
130
133
133
132
133
133
134
135
135
133
133
132
132
134
134
134
133
132
132
131
133
133
133
133
132
132
133
132
132
131
130
129
128
127
127
128
128
128
128
128
127
126
126
127
127
127
127
127
125
151
121
105
117
117
95
91
88
87
86
97
95
153
99
90
84
84
100
120
140
146
120
136
122
126
131
132
134
134
134
137
138
139
141
138
139
145
151
154
154
48
8
10
49
55
50
50
51
52
129
133
133
133
133
133
134
135
135
134
134
133
132
134
134
133
133
133
133
132
132
133
133
133
133
132
132
132
131
131
131
130
130
127
127
127
128
128
128
127
127
126
126
127
127
127
127
127
126
153
123
105
120
137
110
88
94
93
93
106
101
158
115
90
89
84
92
132
161
165
152
131
121
122
133
130
129
129
133
135
136
138
137
137
139
145
151
153
151
41
8
11
50
52
47
49
50
49
129
133
133
133
133
133
133
135
136
134
134
133
132
134
134
133
133
133
134
134
134
133
133
133
131
131
132
132
130
129
129
130
131
129
127
127
128
126
126
127
127
127
125
126
127
128
127
127
131
152
126
121
129
133
125
117
127
125
107
117
122
149
148
103
107
109
91
130
160
148
134
123
112
115
126
125
127
128
131
130
133
136
135
136
138
143
148
152
149
36
8
11
49
50
46
47
49
48
130
133
133
133
132
133
134
135
135
136
135
133
133
134
134
133
133
133
133
133
134
133
133
132
131
132
133
132
129
128
128
128
128
129
127
126
127
126
127
126
126
126
126
126
127
128
129
129
132
144
127
125
125
80
74
88
124
177
178
183
184
168
134
118
118
137
132
130
115
111
119
120
108
107
122
124
127
128
129
129
131
132
134
134
136
141
146
151
145
29
8
10
49
48
46
46
49
47
130
133
133
132
133
133
133
133
133
133
134
134
134
134
133
134
134
133
130
130
132
132
133
133
133
133
133
132
129
128
127
128
128
128
128
126
126
126
126
125
125
126
126
127
128
128
128
129
129
142
128
119
130
109
114
124
147
183
188
200
202
185
139
118
116
107
117
141
112
107
121
128
117
105
120
124
125
128
128
128
129
132
133
133
135
140
145
148
142
26
7
10
48
46
44
45
48
48
130
132
132
131
132
133
133
133
133
134
134
134
134
134
133
134
134
132
130
129
130
131
132
133
133
133
133
132
129
128
128
128
128
128
127
126
126
126
126
125
125
126
126
127
129
130
131
129
126
131
134
121
129
124
127
150
171
186
186
203
206
202
166
151
148
166
135
122
111
101
129
143
130
107
118
122
124
128
129
129
130
131
133
133
135
139
145
147
139
25
9
12
48
44
42
43
47
47
130
131
132
131
132
132
132
133
134
134
134
134
134
134
133
133
131
130
128
129
130
131
132
132
133
132
132
130
130
130
129
128
127
128
127
127
127
126
125
124
125
126
125
126
127
127
135
121
104
118
136
121
108
134
151
162
185
185
183
202
205
204
183
169
160
154
152
116
103
98
137
155
142
120
119
127
127
129
130
130
131
132
135
133
134
138
143
146
132
21
9
12
46
41
41
42
44
45
130
131
131
131
132
132
133
134
134
134
134
134
134
134
134
132
131
131
129
131
131
131
133
132
131
129
131
129
130
130
130
128
128
128
127
127
127
127
126
125
125
125
125
128
129
124
129
130
103
121
132
119
98
125
156
180
186
184
177
201
206
208
208
192
185
168
158
112
101
95
132
166
141
127
125
150
151
139
132
130
131
132
132
131
134
138
143
144
127
21
9
13
42
40
40
42
43
46
130
133
132
130
131
133
132
133
135
134
133
134
134
133
133
133
131
130
130
131
132
133
133
133
130
129
130
127
128
128
129
129
128
128
128
128
126
127
127
125
124
124
125
129
129
121
121
107
124
132
119
126
104
98
132
169
182
172
170
197
204
206
203
201
193
173
151
104
95
88
121
161
149
138
127
131
147
141
134
128
126
126
125
129
136
139
142
144
125
19
9
9
35
40
41
41
42
43
130
134
132
131
130
131
131
132
135
134
134
135
133
133
132
133
131
131
130
131
132
133
131
133
133
129
128
126
128
128
128
129
128
128
128
126
124
125
125
123
122
122
122
124
126
131
133
135
135
112
114
124
111
84
114
158
171
164
171
197
199
201
199
197
181
171
140
97
92
86
116
143
144
136
127
133
141
139
138
137
136
134
125
131
136
139
141
142
122
17
8
11
37
40
38
38
39
40
130
133
132
132
129
129
131
134
134
133
133
133
133
133
133
133
131
131
131
133
132
132
130
132
132
132
129
128
128
128
129
129
128
127
127
125
124
124
126
123
122
124
122
121
122
123
121
115
114
114
110
127
130
89
80
133
161
160
173
194
194
194
193
188
172
160
115
92
88
88
122
146
124
135
132
127
118
119
130
145
151
154
156
156
151
140
140
141
116
15
7
16
45
46
45
40
37
35
130
133
132
131
129
129
131
133
134
134
133
133
134
133
133
133
132
131
130
132
131
131
129
132
132
132
130
129
129
128
128
129
127
125
126
124
124
123
125
123
122
122
121
114
106
98
100
108
112
106
96
123
148
121
85
103
137
156
148
166
183
184
182
178
162
117
84
83
86
101
138
151
136
122
118
100
97
109
109
111
130
148
159
162
149
134
139
138
111
11
6
18
45
44
44
42
42
43
130
132
132
128
128
128
130
133
133
133
133
133
133
132
132
132
132
131
131
131
131
131
131
131
130
130
131
129
128
127
127
128
126
123
124
124
125
124
123
123
123
122
122
116
99
88
94
124
113
97
87
102
146
151
99
92
91
133
163
175
178
178
171
151
106
82
76
83
92
116
132
131
142
119
114
106
108
114
115
116
128
145
154
158
142
133
136
136
106
11
4
22
43
41
41
41
41
43
129
132
131
128
127
127
129
133
133
133
133
133
133
132
132
133
132
132
131
131
130
130
129
128
127
127
131
128
126
127
125
125
124
121
121
123
123
124
123
123
123
123
124
121
111
101
97
107
109
101
93
104
102
110
118
115
92
92
121
171
168
151
130
148
101
87
81
103
103
124
120
123
125
114
112
107
108
111
89
94
113
133
139
145
138
132
134
135
100
12
4
23
39
36
36
37
39
40
130
132
132
129
129
127
128
133
134
133
133
133
133
132
131
132
132
131
130
129
128
127
126
126
127
127
127
126
125
126
124
122
120
120
120
121
121
122
122
122
123
122
122
120
114
106
96
90
90
99
114
113
89
83
97
86
88
114
105
107
123
156
186
161
117
106
117
154
134
120
114
138
126
103
109
110
88
63
33
28
25
31
57
87
93
100
119
129
96
10
5
24
36
34
34
34
35
35
130
133
133
128
129
127
128
132
133
132
132
133
133
130
130
131
131
130
128
127
126
124
122
123
126
127
126
124
123
122
122
121
120
120
121
121
120
120
120
121
123
121
121
120
118
117
111
89
81
81
77
89
82
77
79
80
88
106
116
141
170
196
204
186
151
138
115
145
169
148
119
149
127
112
99
95
86
109
122
74
53
48
42
39
30
33
51
118
91
8
4
23
36
34
35
34
33
34
129
133
133
131
130
128
128
131
133
132
132
132
133
131
132
131
130
128
127
127
126
125
123
125
127
127
126
124
123
122
122
121
121
120
121
121
121
121
120
121
122
120
120
120
120
120
115
94
81
69
62
81
82
85
69
87
120
130
106
181
200
202
202
182
149
134
94
96
104
135
131
128
76
101
101
92
61
101
123
126
108
50
29
20
13
13
69
114
81
6
3
22
33
32
33
32
34
34
129
131
130
132
129
126
128
129
131
132
131
131
132
131
131
130
128
126
126
126
126
125
123
125
127
127
125
122
122
122
121
121
122
122
122
121
122
121
121
120
120
119
119
119
119
120
116
109
88
47
34
36
68
87
79
122
149
151
86
168
201
199
206
186
151
130
95
85
72
89
101
91
75
94
84
72
41
30
36
49
46
17
7
5
5
12
87
110
74
7
4
18
28
30
31
31
33
33
129
130
129
132
129
126
127
128
130
130
130
129
131
131
131
127
126
125
124
126
126
125
125
125
126
126
124
123
122
122
121
119
121
123
121
118
120
122
121
119
119
118
118
118
118
119
118
117
109
36
28
25
51
86
84
125
162
176
132
82
195
205
211
201
167
137
102
89
85
102
87
54
63
89
64
33
22
14
14
10
6
3
3
3
5
14
84
107
71
6
4
15
26
28
29
29
30
30
128
130
132
131
126
124
124
125
127
130
128
126
128
128
128
127
125
124
124
126
126
125
126
126
125
126
124
124
125
124
119
112
118
121
117
116
118
121
121
120
120
116
116
116
115
116
114
114
97
27
25
20
26
71
99
102
140
156
113
111
188
196
200
197
178
137
73
98
100
96
65
39
69
73
41
27
21
12
8
4
3
3
2
3
5
15
84
104
64
7
4
8
23
26
28
28
27
27
127
130
129
126
121
120
124
125
126
126
125
124
126
126
126
125
124
125
126
125
118
119
125
126
129
129
125
122
122
125
123
118
121
119
116
116
121
120
122
121
120
118
118
118
115
116
114
114
80
25
21
14
22
42
83
136
172
154
126
190
187
173
171
171
158
121
105
117
106
68
40
60
67
37
33
26
18
14
13
6
3
3
2
3
5
15
85
106
66
17
7
7
6
11
14
17
20
25
126
129
130
128
122
119
120
122
125
126
125
118
119
126
127
127
124
122
126
126
120
122
125
126
129
128
125
122
122
124
123
120
119
118
118
112
116
116
120
125
121
118
117
119
117
118
117
115
69
26
16
13
27
57
143
146
161
162
163
150
188
184
177
171
135
94
88
70
39
24
46
63
35
27
30
27
24
18
15
6
4
4
4
9
37
88
133
145
143
135
123
112
97
68
41
22
14
18
127
127
129
126
123
120
120
123
124
126
127
125
119
120
127
126
122
121
126
129
126
124
124
123
127
128
125
122
120
120
120
118
116
115
116
112
109
109
115
124
119
117
117
118
115
115
115
112
52
24
14
15
32
96
173
179
183
184
140
129
191
183
187
191
108
42
33
29
31
46
50
34
35
37
36
33
24
19
16
8
6
23
65
113
149
161
161
161
159
159
157
154
152
152
146
132
116
93
125
127
128
126
125
122
123
123
121
123
125
123
117
117
124
122
121
119
120
123
123
123
123
123
126
126
122
121
119
119
118
116
112
110
111
111
113
110
118
121
115
113
116
117
115
114
113
101
37
21
14
16
35
129
172
177
186
189
166
159
190
182
190
174
51
26
23
24
35
35
26
32
38
36
35
31
23
21
18
25
92
139
159
164
163
163
161
158
157
157
157
156
154
149
151
150
146
142
123
126
128
128
128
126
126
122
120
122
122
122
119
120
124
123
121
119
118
120
121
120
118
121
126
125
115
117
116
117
117
114
113
112
112
114
118
115
119
120
113
112
112
115
114
113
112
91
26
19
14
20
50
151
171
172
188
172
193
179
180
182
189
134
30
21
18
21
30
22
26
37
38
32
29
26
23
24
21
34
132
155
155
157
156
154
156
153
150
151
152
152
151
148
147
142
145
139
123
127
128
129
128
124
126
124
122
123
122
119
120
116
120
115
115
117
115
119
119
119
118
118
123
123
121
120
117
115
116
117
117
116
115
110
116
114
115
116
118
113
115
115
114
107
111
82
24
19
14
23
71
158
174
182
194
159
216
181
179
184
185
83
25
21
23
29
25
23
32
44
38
35
31
32
28
24
22
23
65
151
154
152
151
149
149
149
150
150
148
150
150
146
147
147
142
137
118
124
129
128
128
124
124
123
123
123
123
122
122
119
119
118
121
119
116
119
119
121
121
121
122
123
122
120
121
119
117
118
117
115
113
108
113
111
115
115
114
112
111
110
113
104
108
75
23
16
14
26
90
167
183
185
186
157
217
188
180
184
168
39
23
31
31
29
22
27
34
36
33
37
34
33
26
24
34
73
36
125
157
154
154
152
154
152
151
152
149
147
146
143
142
139
139
136
119
125
128
127
126
122
120
120
122
123
122
122
125
119
119
119
120
121
122
120
120
121
121
122
120
122
117
117
122
121
116
116
114
110
108
110
113
109
114
113
108
108
105
108
111
105
104
64
22
18
17
31
113
174
192
190
158
194
214
199
180
187
139
23
23
53
47
22
24
29
32
33
39
38
30
28
26
25
42
135
126
123
157
156
155
154
151
150
149
148
144
142
140
140
139
139
138
136
118
126
126
126
125
123
120
120
117
117
119
120
121
116
117
120
118
121
125
120
120
120
119
120
122
125
116
116
120
119
116
114
112
113
114
109
108
108
114
111
108
109
106
106
106
105
91
48
22
22
23
37
144
177
189
201
133
225
202
200
184
187
97
21
34
63
62
20
27
30
35
35
35
32
31
31
29
26
63
137
143
158
157
154
155
154
155
153
152
153
151
146
143
141
139
139
141
141
117
123
125
123
123
124
122
123
118
117
119
118
117
118
121
121
116
118
121
119
119
119
118
119
123
123
117
119
118
115
114
112
111
111
110
112
105
107
110
111
107
109
108
106
105
105
72
45
24
21
25
50
169
196
199
207
150
224
187
188
186
178
52
20
65
70
57
24
30
32
34
35
37
36
33
31
30
30
104
150
143
149
152
153
153
154
153
154
153
153
151
149
149
147
146
144
151
142
118
123
124
124
123
122
119
120
118
119
121
120
116
118
122
118
118
122
118
117
116
117
118
118
121
123
124
122
118
113
111
110
111
109
106
114
104
107
108
108
105
104
102
101
104
95
38
41
28
24
28
45
165
209
203
202
155
193
178
182
185
155
27
45
81
45
26
27
33
38
40
40
33
31
32
31
31
47
135
159
160
155
153
153
153
154
154
152
150
148
148
149
150
149
148
145
148
143
121
123
125
123
123
124
124
123
116
119
120
119
115
116
120
119
120
120
117
114
115
117
120
119
121
123
122
121
118
118
113
109
112
110
112
112
106
108
108
105
103
102
97
97
97
55
22
37
26
28
32
36
153
210
193
175
143
179
182
178
184
130
25
52
45
31
30
33
40
43
40
34
31
33
33
31
35
94
151
154
153
154
151
150
149
149
148
148
149
149
149
150
149
148
146
147
148
142
121
125
125
121
123
124
125
121
116
117
117
117
115
113
115
119
118
118
119
118
115
117
120
121
124
124
117
116
114
113
110
112
112
110
114
109
104
105
104
104
100
98
97
98
87
23
22
31
20
28
33
31
141
205
182
128
120
175
185
179
179
104
23
35
33
31
31
33
35
38
35
32
32
33
33
30
78
134
156
154
151
153
153
151
148
148
146
149
151
151
148
147
147
147
147
146
148
141
123
129
127
122
120
121
124
121
117
116
116
117
115
115
115
118
116
116
117
116
113
118
117
119
123
122
114
114
114
111
111
113
109
106
109
109
109
101
101
101
100
100
98
94
78
18
18
31
23
22
32
30
143
173
158
75
98
167
177
183
174
87
31
34
32
31
30
33
37
37
36
34
34
36
33
40
116
155
164
156
155
154
150
148
149
150
151
150
150
148
148
147
147
149
148
147
148
141
120
128
130
126
123
124
119
117
113
115
115
115
116
113
116
114
111
116
117
114
118
120
114
117
120
113
111
113
116
110
107
111
109
104
104
106
100
98
96
95
96
97
94
89
56
25
22
25
31
25
29
27
74
117
157
80
83
170
176
177
171
77
35
29
29
31
35
39
37
35
37
37
38
35
31
45
139
160
160
156
154
151
151
152
153
152
150
146
146
145
145
147
149
147
144
145
147
142
118
127
129
126
123
120
119
115
111
114
112
117
118
111
109
108
112
115
118
111
117
119
114
116
115
111
109
112
114
116
109
107
104
103
100
104
98
96
93
93
92
94
91
76
34
26
21
23
27
28
29
25
20
109
168
111
54
160
177
185
147
54
30
31
31
34
41
38
34
36
37
39
38
32
25
53
152
160
158
154
151
153
153
152
150
149
150
149
146
149
150
149
147
146
145
144
146
142
116
121
121
123
123
120
118
120
115
113
115
119
119
118
114
108
112
114
120
118
116
116
116
116
116
115
113
110
113
112
107
104
103
100
101
100
94
96
96
95
93
94
94
53
25
26
23
18
22
25
27
24
15
62
130
158
139
127
156
170
88
35
33
32
36
40
39
37
37
39
41
39
34
24
23
100
160
158
157
157
156
155
151
149
148
147
147
151
152
153
151
150
148
148
147
146
146
142
116
116
120
121
120
120
117
118
115
112
116
117
114
118
117
113
115
112
116
116
111
112
113
115
116
117
112
112
110
111
106
106
104
97
98
96
92
94
96
96
90
85
64
24
16
18
23
27
24
21
21
23
31
101
155
165
167
167
142
104
41
34
34
40
44
40
36
37
41
40
39
36
24
20
23
103
156
158
159
158
155
151
150
148
148
151
153
151
147
147
145
145
148
149
149
148
147
142
116
120
125
122
120
121
117
117
115
115
114
112
111
114
118
117
114
114
117
117
110
114
112
113
111
110
109
110
110
111
104
104
101
96
94
93
90
91
90
75
51
28
22
23
22
26
25
23
25
25
23
37
113
150
161
181
192
198
172
60
33
38
41
42
40
36
38
41
42
37
34
27
16
19
28
129
160
157
154
153
150
150
149
151
151
148
146
146
143
142
142
148
152
151
148
147
148
141
117
119
118
119
120
123
123
116
115
117
116
115
116
115
115
113
113
115
115
114
110
114
111
112
110
110
106
108
111
110
107
106
100
95
93
88
79
57
38
21
30
76
121
82
27
28
23
22
18
21
27
106
162
165
166
193
201
161
83
28
30
33
41
40
38
39
41
42
38
33
27
21
15
19
35
142
155
152
151
151
150
151
149
147
144
145
144
142
141
147
150
149
147
147
145
144
145
140
122
124
120
119
122
122
122
118
115
116
116
116
114
115
115
111
108
112
115
117
113
112
109
110
111
110
108
111
110
109
108
108
101
87
69
46
25
26
67
113
147
163
163
66
22
19
15
19
13
13
66
158
181
195
204
203
147
38
21
24
32
39
43
40
39
42
41
39
34
26
21
21
17
18
64
151
151
152
151
149
148
147
146
146
144
142
141
145
149
150
146
144
145
145
144
143
144
140
121
126
124
119
123
120
119
120
114
112
112
112
113
112
112
112
110
114
113
114
117
112
108
108
108
109
102
100
105
107
103
87
61
34
19
42
92
128
155
160
163
167
166
54
18
22
28
21
12
12
112
172
187
202
196
130
51
27
22
25
32
43
43
40
43
42
35
33
28
17
14
19
18
17
99
158
155
150
146
144
143
143
144
145
143
144
150
152
149
145
144
145
144
143
144
145
145
140
119
125
124
119
122
119
119
119
116
113
112
109
111
112
110
112
116
114
110
109
112
111
111
108
108
107
103
103
96
78
48
23
18
47
101
143
161
162
163
164
168
171
133
31
26
32
33
23
11
12
127
172
191
180
100
38
34
32
27
29
41
42
41
46
44
39
34
31
22
14
13
13
17
18
64
151
155
153
152
150
150
149
146
144
148
152
148
144
145
145
143
142
141
142
141
142
143
139
121
125
120
117
117
118
115
116
116
115
113
105
109
114
113
110
114
114
112
109
108
106
107
107
104
102
88
62
31
15
19
59
111
142
153
152
159
159
159
162
163
157
53
23
23
26
30
26
17
13
130
176
157
67
30
22
24
32
30
39
42
40
45
45
38
38
38
32
22
18
14
13
13
15
16
73
145
154
153
153
150
144
146
151
148
145
144
143
144
144
142
142
143
145
146
144
141
138
120
121
118
116
117
116
116
118
117
113
112
105
112
115
113
108
113
113
113
109
104
104
104
91
70
42
20
12
42
80
124
150
155
155
157
158
161
163
162
161
166
158
47
17
18
27
27
22
19
14
112
132
53
24
25
22
23
29
38
42
41
45
44
41
34
44
126
134
76
27
17
17
14
13
14
18
74
148
152
148
148
150
148
145
143
146
146
144
143
142
142
142
142
141
141
141
143
140
119
120
122
118
115
116
116
117
120
117
114
107
115
111
114
108
109
109
111
106
97
82
53
25
13
15
44
103
141
152
153
155
158
158
155
153
156
159
166
165
163
148
39
16
19
27
22
16
12
22
79
44
29
23
22
23
25
33
43
42
45
43
40
39
46
124
179
180
170
133
69
25
18
16
14
12
17
98
149
152
150
144
145
145
145
146
143
142
139
139
140
140
139
138
140
145
149
143
118
117
119
113
115
116
115
116
120
121
116
116
115
112
108
106
107
105
92
63
32
17
15
28
71
114
145
153
154
156
157
156
155
156
157
161
159
157
157
162
166
110
24
29
68
112
61
14
30
83
43
35
31
23
24
27
32
40
40
42
42
41
39
52
126
174
178
179
183
182
170
115
44
19
16
13
16
39
135
148
146
149
150
148
146
143
143
147
148
144
141
141
141
141
144
145
141
139
118
119
118
115
122
118
114
119
119
120
114
114
111
106
100
96
75
46
25
15
14
37
84
127
149
151
154
157
155
154
153
153
157
159
159
161
160
162
162
163
157
72
87
101
119
109
96
37
74
55
31
35
31
25
24
29
38
39
39
41
40
42
71
143
185
184
180
178
175
177
182
182
162
107
38
19
22
29
75
145
152
150
148
145
146
145
144
142
142
143
144
145
145
143
141
140
141
140
118
124
119
118
124
126
123
120
118
115
110
117
105
88
58
30
15
13
21
61
110
139
151
152
153
155
155
156
156
156
155
154
155
154
154
157
159
161
163
166
154
89
77
64
61
110
93
61
46
26
31
33
32
24
27
35
37
38
39
41
48
106
167
179
182
188
184
183
182
182
179
177
180
181
156
84
23
22
30
113
150
148
150
149
148
147
147
147
148
148
147
143
145
148
148
149
145
139
119
124
124
123
124
127
122
119
116
114
103
81
47
23
12
14
47
89
127
148
153
159
160
158
158
156
154
157
158
158
156
155
155
154
152
153
154
157
160
156
110
36
17
18
26
30
74
66
31
25
30
31
30
27
31
34
36
38
41
58
127
176
183
180
174
178
186
180
176
166
170
182
177
171
179
173
116
41
23
69
142
144
146
147
146
147
149
149
147
144
146
144
142
143
142
145
144
139
119
123
125
124
121
121
118
113
92
60
32
16
13
13
35
101
149
159
159
159
163
165
160
156
158
161
159
155
154
154
157
157
153
154
153
153
156
151
153
152
58
16
14
15
24
19
25
51
30
26
27
28
30
30
31
31
33
39
78
129
166
170
168
166
165
164
168
181
178
162
155
170
186
176
166
173
178
137
51
84
147
149
144
143
146
148
149
149
149
146
143
143
146
146
145
144
144
140
121
125
124
125
120
107
80
46
23
14
12
11
13
60
134
162
163
161
162
163
160
159
160
162
160
157
154
156
157
156
156
156
158
162
165
161
147
145
152
132
31
16
16
19
25
17
11
19
23
27
24
29
32
31
32
33
43
107
169
163
166
166
157
160
154
152
153
165
177
168
163
173
185
184
174
168
176
181
158
133
149
155
154
152
149
142
144
148
148
149
149
149
149
146
145
144
145
140
120
122
116
94
62
31
17
12
10
8
9
14
65
147
163
163
166
165
163
162
163
165
164
161
159
160
162
163
162
161
163
166
166
162
160
158
133
151
157
82
18
19
25
29
31
20
11
19
23
32
27
31
31
28
35
85
146
173
185
177
163
176
172
160
158
162
163
164
174
171
162
175
184
188
188
176
170
178
180
165
143
148
147
148
151
152
148
143
146
149
150
150
151
153
151
144
144
141
100
77
45
20
13
11
10
9
10
12
14
67
149
170
160
166
166
161
162
165
164
163
158
162
162
160
159
156
158
162
162
160
157
159
164
166
148
125
138
41
52
46
33
33
35
26
18
27
26
37
30
28
29
54
119
159
175
177
191
181
167
171
181
176
171
175
177
180
182
180
177
180
195
192
185
188
170
165
172
178
167
147
149
151
151
150
151
154
151
150
151
151
151
155
160
159
148
139
24
15
12
10
9
9
9
8
9
14
42
149
166
174
159
164
157
164
168
166
163
164
169
167
163
159
164
165
165
159
160
167
173
178
177
148
71
39
63
128
172
174
158
112
69
35
49
31
28
35
30
27
57
127
179
183
174
174
188
181
177
173
175
182
180
181
183
187
193
190
184
190
193
193
187
186
183
165
163
170
172
154
144
140
139
145
150
152
153
151
148
148
148
150
154
148
149
144
12
11
10
9
9
9
9
9
11
21
117
174
169
172
158
155
155
166
164
164
168
169
166
163
163
167
169
167
166
170
174
178
177
175
145
56
36
35
136
178
188
190
190
191
181
106
111
34
32
29
29
54
113
132
164
174
173
172
186
186
177
177
176
179
186
186
189
195
204
201
188
187
193
192
188
186
189
179
168
173
174
162
157
157
152
149
151
148
148
148
150
151
150
151
150
149
155
159
10
10
10
10
10
10
11
10
15
74
166
174
170
165
159
153
153
160
158
167
170
168
164
167
168
168
165
167
171
174
175
175
173
125
51
87
127
59
162
182
189
187
176
181
186
119
102
36
32
59
97
120
135
144
162
170
175
170
182
184
180
176
176
178
187
190
202
197
195
198
202
193
191
192
189
187
192
184
182
177
176
169
158
163
160
153
149
148
154
156
154
148
146
140
137
145
151
152
10
10
11
11
12
14
15
16
34
138
176
178
167
158
151
151
150
155
155
166
166
167
171
172
166
164
169
172
173
171
170
166
117
79
143
182
178
113
152
180
189
187
169
182
185
142
105
57
93
132
146
149
140
161
163
157
173
171
185
185
187
174
180
183
186
189
198
199
195
195
198
202
198
192
191
191
193
184
183
182
177
169
155
154
160
162
161
159
151
149
153
150
145
141
149
143
147
142
10
12
14
16
17
19
23
26
87
165
178
183
160
151
144
149
148
154
153
157
157
169
175
169
171
174
175
172
172
174
172
109
50
150
178
178
182
169
104
168
184
189
177
188
187
157
115
136
154
156
157
146
153
171
172
169
168
169
181
187
189
178
172
179
183
187
192
200
198
194
194
197
201
199
194
195
192
184
183
182
178
169
153
146
146
156
163
165
160
154
150
155
162
151
150
146
138
136
13
14
18
21
24
26
29
39
129
170
178
184
168
145
141
138
145
152
154
152
152
166
167
171
177
180
175
170
173
173
116
42
104
173
178
184
188
189
101
112
174
190
185
187
155
116
146
177
181
173
154
149
164
181
182
182
160
155
174
182
187
186
175
175
181
186
190
196
199
198
197
196
198
198
196
195
188
184
182
181
178
166
163
167
162
154
149
153
159
163
161
153
156
155
148
151
149
140
18
22
26
27
27
26
31
76
153
177
178
182
176
152
135
136
141
149
154
150
151
161
161
175
178
175
172
178
173
111
51
62
143
178
181
181
186
186
147
41
105
159
189
181
88
51
132
181
186
183
170
156
165
187
186
184
153
158
172
177
181
186
180
178
181
185
186
191
194
197
199
198
198
198
197
190
185
182
181
181
178
167
156
167
171
168
163
156
151
155
163
162
158
159
156
150
156
149
27
31
30
30
30
29
36
124
168
180
175
180
179
162
127
131
141
146
150
150
147
153
156
173
175
172
179
162
91
63
93
143
176
172
171
174
176
178
175
63
31
50
125
167
111
33
40
127
185
183
181
177
170
185
190
186
161
159
170
173
175
180
180
179
180
183
184
184
186
191
193
193
193
191
187
184
182
181
181
178
176
162
158
162
157
160
164
165
159
154
150
153
156
160
166
154
152
152
30
31
31
31
31
30
59
158
176
182
179
173
177
172
129
124
134
145
149
147
142
150
153
168
172
175
176
91
77
84
125
148
124
90
120
137
160
169
174
106
27
36
41
54
48
30
30
43
147
184
183
182
181
182
194
193
168
153
166
171
172
175
177
177
179
180
180
180
181
183
183
183
182
181
182
182
181
181
178
170
162
159
165
168
171
170
163
162
165
169
168
162
153
155
164
165
155
149
30
33
33
33
31
30
93
174
181
182
184
177
171
173
141
124
128
146
151
145
139
147
152
163
168
176
133
71
87
92
92
85
79
72
65
61
59
96
120
76
45
51
52
54
49
33
30
32
65
170
183
182
181
183
193
196
179
148
162
166
170
172
174
174
175
177
178
179
180
180
181
181
181
182
181
178
177
177
166
156
170
177
172
163
157
159
171
180
177
176
177
180
176
171
167
159
158
153
31
34
33
33
31
36
126
181
182
181
181
179
174
172
161
124
126
146
151
144
141
145
151
161
158
162
69
78
89
90
82
75
73
69
61
53
45
42
47
50
58
62
65
63
58
45
33
35
35
114
184
185
183
183
185
194
188
160
163
164
166
171
174
174
174
177
176
175
177
179
180
182
184
180
176
174
170
164
170
172
165
165
169
170
171
169
158
159
168
172
171
172
176
177
177
181
178
169
31
33
32
33
33
44
145
181
177
184
184
186
187
187
186
146
119
144
155
143
143
145
151
159
151
103
45
67
71
70
66
65
64
58
47
43
40
47
56
64
65
64
66
63
59
55
40
32
30
53
169
185
183
183
182
181
175
166
164
164
165
171
173
173
172
175
178
179
178
179
181
182
182
176
172
163
159
163
172
176
180
173
167
167
168
167
166
161
155
154
163
165
164
168
169
174
182
175
31
32
33
33
33
64
162
192
188
194
197
195
190
187
188
179
130
139
160
146
137
150
152
158
127
42
46
52
54
57
58
57
50
41
36
44
56
64
68
70
67
67
66
63
58
54
44
31
29
33
137
187
182
182
178
173
164
154
157
170
167
170
173
173
173
178
182
182
181
180
181
180
179
169
162
168
172
168
169
169
170
171
173
172
176
181
181
175
166
158
157
164
170
169
165
165
168
170
32
31
33
34
34
95
167
188
196
200
197
194
187
163
131
93
93
127
159
147
139
156
154
150
80
35
42
45
47
50
52
46
36
33
50
77
86
81
73
70
66
65
62
59
55
48
41
33
28
29
105
186
179
174
170
169
171
176
174
170
175
173
172
170
175
179
182
181
180
180
179
174
166
163
173
176
178
178
170
169
180
183
179
177
171
163
164
173
179
173
166
165
156
155
158
158
157
163
32
32
33
34
37
138
169
173
199
198
176
139
84
38
27
27
58
117
149
151
143
160
154
105
39
40
43
41
40
44
41
32
28
40
76
100
101
89
77
69
63
57
53
50
45
41
35
33
29
33
101
176
169
172
179
181
183
184
178
171
170
169
170
173
178
179
182
179
176
171
168
169
172
175
174
173
175
176
174
174
176
186
183
181
184
183
178
171
163
165
167
166
165
159
158
159
161
164
33
34
33
35
41
143
173
149
129
81
40
28
28
27
26
28
39
72
112
155
152
164
141
45
33
38
38
36
36
36
30
27
63
73
95
104
102
85
73
64
57
51
46
42
38
36
33
34
43
91
149
179
187
191
191
191
190
190
186
186
181
174
171
171
174
175
172
164
160
168
181
179
177
178
179
175
174
174
171
173
175
177
179
179
179
182
187
188
183
170
155
153
164
167
167
169
171
167
32
34
35
35
41
99
61
37
32
31
30
28
29
27
27
28
34
64
74
124
160
163
80
29
32
34
35
32
31
26
28
56
146
82
97
99
92
77
68
61
54
47
42
38
34
34
45
97
153
181
180
182
186
186
187
182
179
180
182
183
183
182
176
173
172
172
175
179
176
175
177
179
177
177
176
172
172
174
172
170
171
171
172
171
171
170
171
176
181
187
180
162
152
160
168
167
163
164
33
35
36
36
38
49
33
33
32
29
28
29
30
31
30
29
30
56
71
93
156
121
31
31
33
32
31
28
26
23
32
129
160
75
93
93
83
71
63
57
49
43
38
35
45
100
161
189
187
179
175
180
181
181
179
181
186
185
179
180
182
187
193
193
190
189
189
197
199
199
198
195
192
189
183
182
175
172
176
166
169
174
169
170
170
170
169
167
170
182
189
189
176
160
156
157
161
165
34
37
38
36
35
33
32
32
33
32
30
31
32
32
30
29
29
38
60
80
107
50
27
33
31
29
28
24
24
24
64
172
138
73
90
89
78
66
58
52
44
38
35
68
151
194
196
186
178
180
185
186
183
180
186
185
178
178
188
196
199
196
193
191
190
187
187
187
188
188
186
184
186
184
178
174
175
173
177
173
168
177
175
171
170
171
170
170
169
165
172
183
192
192
182
167
163
164
33
37
37
37
34
34
33
33
33
33
33
32
31
31
30
30
30
30
31
61
50
31
34
40
35
31
26
24
25
27
114
183
116
70
86
83
75
64
53
47
37
39
82
181
194
191
188
183
183
188
185
185
185
186
181
178
191
199
196
189
183
180
181
180
182
183
180
177
177
180
183
180
172
171
173
175
178
178
175
177
172
173
176
172
172
173
169
167
167
166
164
165
175
183
192
197
194
168
32
37
37
39
37
36
33
33
33
32
32
32
33
32
32
32
30
30
29
37
32
32
42
43
39
33
29
28
28
39
148
182
97
69
82
81
72
62
50
40
35
67
177
198
189
190
193
189
187
187
183
184
181
178
188
200
197
190
180
178
179
180
183
181
179
174
175
178
183
181
172
170
174
177
178
181
184
180
177
181
174
171
176
175
173
176
177
177
177
173
172
171
167
166
169
175
181
168
31
34
35
36
37
36
35
35
35
35
36
35
34
34
34
33
32
31
29
38
30
38
45
44
41
36
33
30
33
77
164
183
79
72
79
79
70
60
50
40
42
141
185
188
188
188
196
192
192
190
187
186
185
200
203
191
179
177
180
185
188
187
182
179
182
182
183
183
177
172
171
172
175
179
183
185
183
180
175
174
176
175
179
180
177
171
165
167
170
171
172
174
174
174
171
169
167
164
31
35
34
34
36
37
36
36
36
35
36
35
35
35
33
33
33
31
28
28
34
44
46
43
42
38
33
30
38
123
172
177
64
76
79
77
70
61
50
40
62
165
172
181
186
184
195
191
193
192
195
196
203
200
184
176
181
189
193
191
185
183
182
180
181
183
178
173
175
184
188
188
182
177
171
170
172
175
177
173
168
170
170
168
165
165
169
174
174
171
169
168
166
166
166
166
168
163
31
35
36
37
38
38
39
38
37
35
36
35
35
35
33
33
34
33
29
29
39
47
45
45
43
36
30
31
83
150
175
155
57
68
74
75
69
62
51
42
96
186
172
179
183
183
194
185
186
195
196
195
197
179
185
193
197
193
186
182
178
176
179
182
178
173
175
189
198
197
195
190
189
190
190
188
182
173
168
167
167
164
163
165
168
173
175
171
170
169
166
166
167
168
171
168
167
164
32
35
37
37
38
38
37
36
36
35
36
35
35
37
38
37
35
33
28
32
45
46
45
44
37
31
28
40
127
151
179
124
53
63
73
74
69
61
48
45
125
191
182
184
180
182
185
176
194
193
187
195
189
193
199
194
187
183
179
176
178
180
184
184
180
189
196
197
191
187
186
186
184
186
185
183
184
185
184
180
174
166
162
164
164
164
165
165
168
171
169
168
166
160
161
165
165
164
32
34
37
37
37
37
36
36
36
36
37
36
35
40
43
40
35
30
28
35
43
43
44
40
32
28
24
62
137
149
176
82
53
67
75
74
70
60
47
48
133
175
177
184
183
176
177
183
193
188
183
193
192
192
195
190
186
180
180
182
185
187
181
183
196
197
190
185
181
182
183
184
183
183
184
184
184
184
184
186
188
188
185
181
177
168
161
160
164
166
165
165
165
164
161
159
159
163
31
34
36
37
37
37
37
36
36
36
38
37
37
38
40
37
33
28
27
37
41
41
39
35
29
23
14
53
105
144
149
55
59
73
80
75
69
60
48
50
150
165
154
164
175
165
182
185
182
195
178
189
180
190
192
190
187
185
186
189
187
181
187
193
189
183
182
183
181
181
181
177
177
178
182
186
185
184
184
184
183
181
179
179
183
182
178
170
163
164
167
168
169
169
169
165
163
161
30
31
33
36
37
37
37
36
36
35
38
38
36
37
38
37
33
27
27
35
38
37
34
29
24
12
12
24
50
123
105
51
67
77
81
77
72
61
49
63
168
168
168
170
164
162
183
170
182
199
179
175
176
188
194
189
188
190
193
190
184
187
189
187
185
186
183
182
180
177
176
181
184
182
178
174
175
179
183
184
185
185
183
180
180
179
179
179
174
165
163
168
171
172
172
172
171
164