P1
# Created by GIMP version 2.10.20 PNM plug-in
98 100
0000000000000000000000000000000000000000000000000000000000000000000000
0000000000000000000011111111100100001001001001000100100100000000000000
0000000000000000000000101010100000000000000000001111111100000100000000
0000010000000001001001001000010000000001000001001000100100100000000000
0000011111111100100000100100010000001001000000000000001000000100100000
1000000000010010010101010000000000111111110000010000000000000010000000
0100010000000000100000000010000100101010010010000111100000000011111111
0100000001001010010000100010000000010010010000000010000000001011101001
0010100011100000000011111111000001000000000000000000100001000000000000
0010100000001001111110101000100010101111000000001111111100100000100000
0100100000001000001000100100000000001000100101101111111000100000111000
0000001110111100000100001000000000010000001000001000000100001000000001
1010110101001101001000101000000000111111111000000000001001001000001000
0100000010000001000010010000010101101110010000000000100000000111110111
0010001000000000000000100000000000000010000000100000000000001001010100
1000000000000000000011111111000000010010000010000000010000100100000001
0000000100000000000100100100100000000000000000011111111100100000000010
0000010000000100000001000100010010000000000000000000000000000000000000
0000001111011100000000000000000000001000000000000010000000000010000000
0000000000000000000000000000000001111111110001001000000100100000000010
1001000000001000000000000000000000000000000000000000000000000011111111
1000000100100000000100010000000001001000010010100010000000000000000000
0000000000000000000111111111000000000000000001000000000010000000000000
0000001000100101010000000000000000000000000000011111111100010000000001
0000001000100001001001001001001000000000101010101010000000010000000000
0000011111111100000100100100000000000000000000000000000000000010010101
0101000110100000000000000000000001111111111000000000000100010001000100
0100010010010010010000010001101010001010000001010000000000000111111111
0000000000000000000000000000000000000000000000000000000000000001001000
0010000100000000000111111111100100100100001000100001000010010010010010
0100100010011100000001000001000100000000000000011111111100000000000000
0000000100001000000000000100000000000001000000000001000010010010010000
0000011111111100010000000100010000000000001001001010001001001000100000
0000000000001000001000000000000001111111110000010010000000010000100000
0000000000000000000010001000000000000000100000001000100000000111111111
1000000000001000000100001000010010001001001010001000000000000000000011
0001000000000000000111111111000100000000000001000000001000000010000001
0000100010100000000000000001000000000100100000111111111100000010010001
0000001000000000100000001000000000000010000000000000010100000000000000
0000011111111100010000000000000000001000100000100100001010100101000100
0000000000001010001010000000000011111111111000001000100010010000000000
0100000001000000010100100010000000000011100000010101000000000111111111
0001000000000000000000100100000010100001001010100110000100000000001010
0001001000000000001111111111000000010001000100010000001001000000100100
0001010001010000000000101010100100101110001000111111111100010000000000
0001000010000000010100000001010010110101011000000000000000001011111111
0100011111111110000010010001000001000100101000001010100001000101010111
0100000000000000000010011111111011111111110001000000000000000000000000
0010010000010000010111111010001000000011001011101000011111101111111111
0000000100010001010010101001001000001000010100000111111000000000000110
1010111111111111101111111111001010000100000000000000000000001010001010
0001001111101000000000000101011011111111111110111111111100000100000001
0010100100101010100000100000100100111111100000000000110111111111111111
1110111111111100000001001000000000100000000000101000101000100101111100
0000000000000111111111111111111011111111111001010000001010010000010001
0010001010000100010011111100000000000111111111111111111111000001011111
0000000101000000100010000100010010000100001000101111110000000000011111
1111111111111000000000000010001001000001010000100010001000000101010100
1010011111100000000000111111111111111110000000000000000000000001010000
0100001000000101010000000010000101111110000000000011111111111111110000
0000000000000001001000000101001010001010000000101010100101000111110000
0000000111111111111111111000000000000000000000001001000001000100000010
1010001001001000101111111000000000011111111111111111100000000000000000
1010001000001000100010101000000100100100101010011111000000000001111111
1111111110000000000000000000000010001010001000100000001010100100100001
0001111111000000000011111111111111111000000000000000000001000100000010
0010001010100000010010011001010011111100000000001111111111111111000000
0000000000000000000001010001000010000000101010010010010010101111110000
0000001111111111111111000000000000000000000101010000100101000101010000
0001001001001010111111110000000000111111111111111100000000000000000000
0000000101000000100000001010101001001010100101111111000000000011111111
1111111000000000000000000000100010000010101001010100000000010010010101
0111111111000000000111111111111111000000000000000000000000100010100010
0100010010101010100101010101011111111110010000001111111111111100000000
0000000000000000010000101001001001000010010001001001010101111111111001
0000011111111111111100000000000000000000000100010000000010010001000100
1010101010101011111111111100000001111111111111110000000000000000000000
0010001010101001001010100100100010101010101111111111100000011111111111
1111100000000000000000000000000010001000010001000010001001010101010111
1111111111100000001111111111111110000000000000000000000001000100010100
0100010010101001001010111111011111111000000011111111111111111000000000
0000000000000000100001000010100100100000101001011111110001111111100000
0111111111111111111000000000000000000000000001010010100001001000110100
1010111110000001111111000000111111111111111111000000000000000000000000
0000000100101010010101000101011111100000000111111100000111111111111111
1111100000000000000000000000101010001000100100000101010111110000000000
1111111100011111111111111111111110000000000000000000000000000100010100
1010101001111111000000000000111111110011111111111111101111111110000000
0000000000000001010010000010001001011111100000000000000011111111111111
1111111110000011111110000000000000000000000000100101010010010111111000
0000000000000011101111111111111111110000000011111100000000000000000000
0100010000001010111111100000000000000000011100111111111111111110000000
0001111100000000000000000000001000010100011111110000000000000000000000
1110111111111111111100000000000000111000000000000000000000001000001111
1111000000000000000000000001111101111111111111000000000000000011100000
0000000000000001000010111111110000000000000000000000001111111111111111
1110000000000000000000110000000000000000000010101111111100000000000000
0000000000001111111111111111100000000000000000000000000000000000000000
0001111111111000000000000000000000000000111111111111111100000000000000
0000000000000000000000000000111111111111000000000000000000000000000111
1111111111110000000000000000000000000000000000000000000011111111111000
0000000000000000000000011000001111111110000000000000000000000000000000
0000000000000011111111110000000000000000000000000111000000001111110000
0000000000000000000000000000000000000000001111111111000000000000000000
0000001101000000000111100000000000000000000000000000000000000000000000
1111111110000000000000000000000000000000000000011000000000000000000000
0000000000000000000000000000111111111000000000000000000000001000000000
0000000000000000000000000000000000000000000000000000000011111111000000
0000000000000000010000000000000000000000000000000000000000000000000000
0000000000000011111111000000000000000000000011000000010000010000000000
0000000000000000000000000000000000000000001111111000000000000000000000
0100000000011100011000000000000000000000000000000000000000000000000000
1111111000000000000000000000110000000000111111110000000000000000000000
0000000000000000000000000000111111000000000000000000000101011101000111
1111110000000000000000000000000000000000000000000000000011111100000000
0000000000000101010111111111111111100000000000000000000000000000000000
0000000000000011111100000000000000000000111111111111111011111110000000
0000000000000000000000000000000000000000001111110000000000000000000111
1111111111101111111111000000000000000000000000000000000000000000000000
1111100000000000000000001111111111101011101111111100000000000000000000
0000000000000000000000000000111110000000011110000000111111111111010111
1111111110000000000000000000000000000000000000000000000011111000011111
1110000001111111111010011011111111100000000000000000000000000000000000
0000000000000011111011111111111110000111111111010110111111111100000000
0000000000000000000000000000000000000000001111111111111111111000111111
1110010101111111100000000000000000000000000000000000000000000000000000
1111111111111111111011111111111001011101111100000000000000000000000000
0000000000000000000000000000111111111111111111111111111111000110111111
1000000000000000000000000000000000000000000000000000000011111111111111
1111111111111111000101111111000000000000000000000000000000000000000000
0000000000000011111111111111111111111111111100110101111000000000000000
0000000000000000000000000000000000000000001111111111111111111111111111
1000011011111000000000000000000000000000000000000000000000000000000000
1111111111111111111111111111000011111111000000000000000000000000000000
0000000000000000000000000000111111111111111111111111111100001010111100
0000000000000000000000000000000000000000000000000000000011111111111111
1111111111111100001111011100000000000000000000000000000000000000000000
0000000000000011111111111111111111111111110001101011110000000000000000
0000000000000000000000000000000000000000001111111111111111111111111111
1001111011100000000000000000000000000000000000000000000000000000000000