P2
# Jsem mega funny KoleckOLP 2020 (C) Make it stop.
98 100 255
122
124
123
124
128
125
122
123
122
122
122
122
124
129
126
124
124
125
126
123
123
123
122
121
120
119
122
121
124
125
123
125
125
123
125
126
128
126
125
125
126
127
127
126
127
127
125
126
127
126
124
123
123
123
125
125
124
124
122
122
121
118
117
117
114
106
106
105
107
105
102
102
106
144
174
170
159
177
173
175
166
179
182
173
164
158
148
115
123
103
16
17
13
12
11
11
13
12
123
125
123
127
131
127
123
123
122
122
122
122
124
127
124
124
124
124
127
123
123
123
123
123
123
119
121
122
127
129
128
126
126
125
125
126
127
126
126
126
126
126
126
127
127
127
126
126
125
124
125
124
123
123
123
122
122
121
121
119
121
118
116
117
113
106
106
105
106
106
101
103
109
137
157
136
146
152
146
146
143
145
139
122
111
103
100
107
128
99
11
13
11
11
9
9
11
11
127
124
124
125
129
127
122
122
123
123
123
123
123
129
125
123
124
125
129
128
126
124
124
124
127
121
126
124
124
127
125
127
128
126
127
126
125
127
125
123
123
126
126
125
125
126
127
125
124
122
122
122
122
121
123
123
122
120
120
118
120
117
116
116
113
105
104
104
107
105
102
102
101
76
74
74
91
83
128
165
165
155
135
112
120
128
139
143
145
107
14
13
11
9
10
10
10
10
128
126
125
124
126
128
124
123
124
124
124
125
128
132
126
124
127
126
128
128
125
126
126
126
125
125
127
127
127
127
123
126
129
128
127
125
127
126
125
123
123
125
126
126
125
125
126
124
123
121
121
121
121
120
122
121
120
120
120
119
121
118
117
117
115
106
104
106
110
107
103
103
108
103
104
102
103
82
57
59
48
89
122
147
164
174
181
185
186
132
15
17
42
39
21
18
17
12
127
126
125
125
128
130
131
128
125
126
125
127
128
129
125
128
127
128
126
124
125
127
128
126
124
125
125
124
127
128
128
127
128
126
126
125
127
124
123
122
122
125
126
126
125
123
125
123
122
120
122
123
122
122
122
121
121
124
123
124
122
118
116
116
117
111
106
109
109
106
107
105
104
107
108
108
110
87
46
62
51
96
115
177
192
198
202
205
206
146
16
17
25
39
33
30
28
25
128
126
130
129
126
126
129
129
126
127
128
129
124
125
128
127
124
125
127
127
126
127
126
124
124
124
124
123
124
125
128
128
128
126
126
126
126
123
122
122
122
124
126
125
124
122
125
123
122
122
123
124
124
123
122
123
121
121
116
101
82
75
70
75
88
99
104
113
109
107
108
107
104
104
107
108
111
88
43
50
83
79
136
184
191
191
195
199
201
139
13
15
19
64
54
44
40
37
128
128
130
131
131
128
126
126
129
129
129
127
126
128
128
125
124
124
125
128
129
128
125
124
125
123
123
124
123
124
127
129
128
126
126
125
126
124
123
122
122
124
125
124
123
122
125
124
122
122
123
123
124
124
122
119
129
119
85
71
64
66
65
67
71
80
87
96
114
114
105
104
108
108
109
111
117
97
44
48
34
81
173
180
183
185
189
192
197
128
11
13
22
71
58
48
43
37
129
129
129
129
129
130
131
128
126
127
128
125
129
129
126
124
124
124
124
126
132
131
125
125
125
123
122
122
123
124
127
129
128
127
127
125
127
124
123
122
123
125
126
124
124
123
125
122
123
122
121
123
125
118
121
118
93
82
76
71
70
70
73
70
70
76
85
89
89
110
117
105
105
110
111
116
127
114
48
47
35
102
168
172
174
177
181
186
192
120
12
14
30
71
57
50
45
40
128
128
128
129
129
130
131
132
128
125
126
127
130
128
125
124
124
124
124
125
131
130
127
127
125
123
123
123
124
126
128
130
128
127
127
125
127
126
126
124
123
125
126
125
125
124
124
122
123
122
120
124
122
118
119
93
92
88
83
81
80
78
81
76
72
76
79
88
89
89
114
115
108
115
119
125
139
135
85
66
37
107
162
165
166
168
173
179
184
111
11
14
39
67
52
49
46
43
127
128
128
130
128
130
129
132
131
127
126
127
131
130
127
126
125
124
124
125
130
129
126
126
124
125
126
126
127
127
129
130
128
128
127
126
125
124
125
125
125
124
125
126
123
122
122
123
122
120
120
122
125
146
118
110
110
102
94
94
89
87
88
84
78
82
86
90
99
96
108
120
116
121
125
133
144
147
127
103
68
105
147
156
155
164
169
173
176
102
11
13
40
64
50
47
47
47
127
129
127
128
127
129
129
130
131
130
128
128
130
131
130
130
128
126
128
129
134
131
127
129
129
129
128
128
128
128
129
128
128
127
126
126
124
124
124
124
124
125
126
125
123
122
121
122
123
121
121
116
154
177
146
149
150
138
123
113
101
98
99
95
89
90
96
97
109
109
109
126
131
130
131
138
145
149
148
142
96
119
137
144
146
160
165
170
171
97
10
12
41
60
49
48
48
48
127
128
127
128
129
129
129
130
131
129
129
130
131
132
131
131
129
127
129
131
129
127
130
130
130
129
129
129
128
127
125
126
129
125
124
124
124
125
125
124
123
125
125
124
122
121
121
121
122
121
121
117
156
197
191
184
183
183
176
141
118
118
115
112
105
103
106
107
117
137
115
144
143
133
137
143
144
145
147
146
143
143
137
134
141
158
161
165
167
90
10
12
42
56
46
46
45
47
128
129
129
129
130
130
130
131
132
129
130
130
130
131
131
130
130
129
130
129
127
129
129
128
127
125
129
129
128
127
128
130
128
124
124
123
123
125
126
125
125
126
125
123
122
122
122
122
122
122
131
125
141
186
207
170
166
170
193
179
175
173
147
153
136
131
124
119
135
151
137
153
162
137
138
141
145
142
142
144
145
145
139
133
141
155
159
161
163
82
8
11
42
54
43
42
43
47
132
131
130
130
130
130
131
131
132
131
134
133
131
130
129
128
129
130
131
129
129
130
128
128
128
128
128
126
125
126
129
128
127
124
123
123
123
125
125
125
124
127
127
125
124
123
122
121
121
125
139
125
138
177
203
152
148
147
156
172
180
188
187
197
183
179
174
155
165
170
170
163
154
139
136
136
140
143
143
143
142
143
142
136
138
151
155
157
161
76
7
10
41
48
40
41
43
47
133
132
130
130
130
131
132
129
131
132
132
131
131
131
130
129
129
130
130
128
130
129
128
128
129
130
129
127
125
127
129
128
126
123
122
123
123
125
125
124
123
133
131
128
126
125
122
121
121
130
131
120
130
157
172
138
124
123
130
136
143
165
187
179
169
170
177
192
188
194
199
198
151
135
132
132
134
138
139
138
138
143
145
136
138
149
151
155
160
72
7
10
37
47
40
41
43
46
130
131
131
131
131
133
130
130
133
133
131
130
130
131
131
132
130
129
128
129
130
128
128
127
128
129
131
128
127
127
128
127
126
123
123
122
124
127
127
124
124
126
125
125
127
124
121
120
120
139
127
116
121
131
133
114
105
102
103
110
122
126
131
141
144
135
146
163
178
169
185
212
151
130
134
129
130
132
135
134
134
138
140
134
135
145
149
153
157
64
8
9
29
43
38
39
42
39
130
131
129
130
131
131
131
133
132
131
130
129
130
130
130
132
132
129
128
129
130
130
129
127
128
128
130
128
127
127
128
127
126
124
124
123
124
126
126
124
122
124
124
125
123
123
121
121
121
143
126
112
114
115
113
105
96
93
91
96
115
121
108
111
109
113
124
130
146
132
148
179
142
118
130
128
130
130
133
131
132
134
136
132
134
142
147
152
153
57
8
9
32
43
38
35
35
34
130
131
130
130
130
130
131
132
131
130
130
129
129
130
131
131
131
129
129
129
130
130
130
129
129
129
129
128
128
127
128
128
126
124
123
123
123
123
123
123
122
122
123
124
123
122
122
121
121
147
123
108
114
112
101
96
90
86
85
95
105
135
100
98
93
96
110
118
131
130
122
151
129
119
127
128
129
131
132
131
131
132
136
131
132
139
145
151
152
52
8
10
42
49
45
44
46
47
128
131
131
130
131
131
131
132
132
130
130
129
129
131
131
131
130
129
129
128
130
130
130
130
129
130
130
129
129
128
127
125
124
123
123
123
123
123
123
123
122
122
122
123
123
122
121
122
121
148
121
105
117
118
95
90
88
87
87
98
95
152
98
90
85
84
101
121
141
148
121
138
122
125
127
128
128
128
128
131
132
132
134
131
132
138
145
149
149
46
8
10
45
47
42
43
44
45
128
131
131
131
131
131
132
133
133
131
131
130
129
131
131
130
130
130
130
129
129
130
130
130
130
129
130
129
129
128
127
126
126
123
123
123
123
123
123
123
122
122
122
123
123
122
121
121
122
151
122
105
120
137
110
89
95
93
93
107
101
158
114
91
89
84
92
133
162
166
153
132
121
121
129
125
125
124
127
129
130
131
131
130
132
138
144
147
146
39
8
10
47
45
39
41
43
42
128
131
130
130
130
130
131
133
134
132
132
131
129
131
131
130
130
131
132
132
132
130
130
130
128
128
130
129
127
125
125
126
126
125
124
123
123
121
121
121
122
122
121
122
122
122
121
122
126
150
125
121
129
133
126
118
128
125
107
117
122
148
146
103
107
109
92
130
160
148
135
123
112
114
122
120
122
122
125
124
126
129
129
130
132
137
142
148
145
33
7
11
45
43
39
40
42
41
129
131
131
130
129
130
131
133
133
134
133
131
130
131
131
131
131
131
131
131
132
131
130
129
128
130
130
129
126
124
124
124
124
125
124
123
123
121
121
121
122
122
122
122
122
122
123
124
127
142
126
124
125
80
76
90
126
178
177
182
183
167
133
120
119
138
133
130
115
110
119
120
108
106
119
119
121
122
123
123
124
125
128
129
131
136
141
147
141
28
8
10
44
42
39
38
42
40
130
131
131
129
131
130
130
131
131
131
132
131
131
131
130
131
131
130
128
127
129
130
130
130
130
130
130
128
125
124
123
124
124
124
124
122
122
122
122
121
121
122
122
122
122
122
123
124
126
140
127
119
130
110
118
131
152
185
186
199
201
186
142
123
121
109
117
141
112
107
120
128
117
104
116
119
120
123
123
123
124
126
127
128
129
134
140
144
138
24
7
10
44
40
37
39
42
41
130
131
130
129
130
131
130
131
131
132
132
132
131
131
130
131
131
129
127
126
127
128
129
130
130
130
129
129
126
124
124
124
124
124
123
122
122
122
123
121
121
122
122
122
124
125
126
124
123
130
133
121
129
124
131
155
175
187
183
200
203
202
168
157
155
168
136
122
110
101
129
143
130
106
115
118
119
123
124
124
124
125
127
127
129
134
139
143
135
23
9
12
44
37
36
37
40
40
128
129
130
129
130
130
130
130
132
132
132
132
132
131
131
130
128
127
125
126
127
128
129
129
130
129
128
127
127
126
125
124
123
124
123
123
123
122
122
120
121
122
121
122
123
123
131
117
102
118
136
121
108
134
153
164
185
183
180
198
201
203
183
174
166
157
153
117
102
98
136
155
142
120
116
124
123
124
124
124
125
126
128
127
128
133
138
143
129
19
9
11
42
36
35
36
38
39
129
129
130
129
130
130
130
131
131
132
132
132
132
131
131
130
128
128
126
128
128
128
130
129
128
126
127
126
127
126
126
124
124
124
123
123
123
123
122
121
121
121
121
124
125
121
126
127
101
120
132
119
98
125
156
180
184
181
176
198
202
206
208
194
187
169
159
112
101
95
131
166
140
126
123
147
147
134
126
124
125
125
126
125
128
133
137
141
124
19
9
11
39
35
35
36
37
40
128
131
130
128
129
131
130
130
132
132
131
132
132
131
130
130
128
127
127
128
129
130
130
130
128
126
126
124
125
125
125
125
125
125
125
124
122
122
122
120
119
119
120
125
126
119
119
106
122
131
118
127
105
99
131
168
180
169
168
194
201
204
202
201
194
174
152
104
95
88
121
160
149
137
125
129
144
137
129
122
121
119
119
124
130
133
136
140
122
18
9
8
31
36
37
36
37
37
128
132
130
129
128
129
129
130
132
132
132
133
131
130
129
131
128
128
127
128
129
130
128
130
130
126
124
123
125
125
125
125
125
125
125
123
120
121
121
119
118
118
118
120
122
128
131
133
133
111
114
125
112
84
113
155
169
161
169
195
197
197
197
195
180
171
141
97
92
86
116
143
143
135
125
131
138
136
133
131
130
128
119
125
130
133
136
139
118
16
8
10
35
36
33
34
36
35
129
132
131
130
128
128
129
132
132
131
131
131
131
130
130
131
128
128
128
130
129
129
128
129
129
129
126
124
124
125
126
125
124
123
123
122
121
120
122
119
118
119
117
116
117
119
118
112
112
112
110
127
130
90
79
132
161
158
170
192
192
190
190
185
171
160
115
91
88
88
122
145
123
134
131
124
116
116
126
141
147
150
151
150
145
134
135
136
113
14
7
15
42
42
40
36
34
31
129
132
131
129
127
128
129
131
132
132
131
131
132
130
130
130
129
128
127
129
128
128
127
130
129
129
127
126
125
125
125
125
123
121
122
121
121
119
121
119
118
118
117
109
100
92
95
104
109
104
96
123
147
121
85
102
136
154
146
163
181
181
179
176
161
116
83
83
85
100
137
151
135
121
117
98
95
106
106
109
127
145
155
157
144
130
135
135
108
11
6
17
42
39
38
36
37
39
129
131
131
127
126
126
128
131
132
132
131
131
131
129
129
129
129
129
129
129
128
129
128
128
127
127
128
126
125
125
124
124
122
119
120
120
121
120
119
119
119
118
118
111
92
82
88
119
110
96
87
102
146
151
99
90
90
133
162
173
177
178
171
150
104
81
75
83
92
116
132
131
142
118
112
105
107
112
113
114
126
142
151
155
140
130
133
134
104
10
6
20
39
36
35
36
37
38
129
131
130
127
126
126
127
131
132
132
132
132
132
130
130
130
129
130
129
128
127
127
126
126
125
125
129
126
124
125
123
121
120
117
117
118
119
120
119
119
119
119
119
116
104
95
91
101
105
99
91
104
102
110
118
113
91
91
120
169
167
150
130
148
100
87
82
103
102
123
120
123
125
113
111
106
107
109
87
92
111
131
137
143
136
129
131
132
97
11
5
21
36
31
32
33
35
35
130
131
131
128
127
126
127
131
133
131
131
132
132
130
129
129
129
129
128
126
125
125
123
123
125
125
125
124
123
124
122
118
117
116
116
117
118
118
118
118
119
117
117
115
108
100
90
84
84
96
113
112
88
83
97
85
87
114
104
106
123
157
186
162
118
107
118
154
134
120
114
138
126
103
108
110
86
60
31
26
23
30
56
86
91
98
117
128
95
10
5
22
33
30
29
29
30
30
129
131
132
127
128
127
127
130
132
130
130
131
131
128
128
128
128
128
126
125
123
121
120
122
125
125
124
123
120
120
119
117
117
117
117
117
117
116
116
117
119
116
115
114
112
111
105
84
76
78
75
88
81
77
78
80
88
105
116
141
171
197
205
186
152
139
116
146
170
148
119
149
126
111
99
94
84
106
119
71
51
47
41
38
30
31
50
117
90
9
5
21
32
30
29
28
28
29
129
132
133
130
128
127
127
129
131
130
130
130
131
129
130
129
128
126
125
125
123
122
121
123
125
125
123
122
120
120
119
117
117
116
117
117
117
116
116
117
118
116
115
115
114
115
110
88
77
68
62
81
83
85
69
88
120
130
106
182
200
201
202
182
149
135
95
98
105
136
131
128
76
101
101
91
59
98
120
124
107
49
29
20
13
14
68
113
80
7
4
21
30
28
28
27
29
29
129
131
130
131
128
126
127
127
129
130
129
129
130
129
129
128
126
124
124
124
124
122
121
123
125
124
123
120
120
120
119
118
118
118
118
117
118
117
118
116
115
115
115
115
114
115
111
104
86
47
35
35
68
86
78
123
149
151
86
168
201
199
205
185
151
131
95
86
72
90
101
92
75
94
84
72
41
29
35
47
45
16
7
5
5
12
87
110
74
7
4
17
26
27
28
27
29
29
128
130
128
131
127
124
126
127
128
128
128
128
129
129
129
125
124
123
122
124
124
123
123
123
124
124
122
121
121
120
119
116
117
119
117
114
115
117
117
115
115
114
114
114
114
114
112
112
106
36
29
25
51
86
84
125
162
176
132
83
194
204
211
201
167
138
102
89
86
102
87
55
64
90
65
34
22
14
14
9
6
3
3
3
5
13
84
106
70
6
4
14
24
26
27
26
26
27
128
130
131
130
125
123
123
125
126
128
127
125
126
126
126
125
123
122
122
124
124
123
124
124
123
124
122
122
123
122
117
109
114
117
114
113
114
117
117
116
116
113
112
112
111
111
110
111
96
28
26
21
27
71
100
102
140
156
113
111
187
195
200
196
178
138
73
97
99
97
66
40
70
74
42
29
22
13
9
4
4
3
3
3
5
15
85
102
62
7
4
8
22
24
26
26
25
24
127
129
128
125
120
119
124
124
125
125
125
123
124
124
124
123
122
123
124
123
116
117
123
124
126
126
122
119
120
123
121
116
117
115
113
112
117
116
118
117
115
114
114
114
110
111
110
111
79
26
22
15
23
43
84
136
172
154
127
190
188
173
170
171
158
122
106
118
105
69
42
61
68
39
35
28
20
15
13
6
3
3
2
3
5
15
85
105
65
16
6
7
6
10
13
15
18
23
126
128
129
126
121
118
120
122
124
126
125
118
119
124
125
126
123
120
124
124
118
120
123
124
126
125
122
119
119
122
121
117
115
114
114
108
111
112
116
121
117
114
112
115
113
114
113
112
69
28
18
15
27
57
143
146
162
164
164
150
189
185
178
170
135
95
89
71
40
25
47
65
37
28
31
28
26
20
16
7
4
4
4
9
36
86
131
144
141
132
120
110
95
66
39
20
13
17
126
127
128
125
121
118
119
122
124
125
126
125
118
118
125
125
121
120
124
127
124
122
123
121
125
125
122
119
117
117
117
115
113
112
112
108
105
106
112
120
116
114
113
114
111
111
112
109
52
25
16
16
32
96
173
179
184
186
141
130
192
184
188
191
108
43
35
30
32
47
52
36
36
38
37
34
26
21
17
9
7
23
65
113
148
158
157
157
155
154
152
151
149
149
143
130
114
92
124
126
126
124
123
120
121
122
120
122
123
122
116
115
123
121
120
117
118
121
121
121
121
121
124
124
119
118
116
116
115
113
109
107
107
107
109
107
115
118
112
110
112
113
111
110
110
98
37
23
15
17
35
130
173
177
187
190
167
159
190
183
190
175
51
28
25
25
36
37
28
35
40
38
36
33
25
23
20
25
91
138
157
161
161
159
155
153
152
153
153
152
150
145
148
147
144
140
122
124
126
126
126
125
124
121
119
120
120
120
117
118
122
121
119
117
116
118
118
118
116
119
123
122
112
114
113
114
114
111
110
109
108
110
113
112
116
117
110
109
108
111
110
109
109
89
27
21
16
21
51
152
172
173
190
174
195
180
181
183
190
135
31
22
19
23
31
24
27
39
42
35
31
28
25
26
22
35
131
153
152
153
152
150
150
148
146
147
148
147
146
143
143
139
142
137
122
125
125
127
126
122
124
123
120
121
120
117
118
114
119
113
113
116
114
117
116
117
116
117
120
119
118
117
114
112
113
115
114
112
111
105
111
110
112
112
114
109
111
111
110
104
108
79
26
21
16
24
72
160
175
183
196
161
217
183
180
185
185
84
26
22
25
31
26
25
34
46
40
37
34
35
30
26
23
23
64
148
151
148
146
144
144
144
146
145
143
145
145
141
142
143
139
134
117
122
127
125
126
122
122
121
121
121
121
120
120
117
117
116
119
117
114
117
116
118
119
118
119
119
119
117
119
116
115
116
115
112
109
103
109
107
112
111
110
108
106
105
108
101
106
73
25
19
17
27
92
168
186
186
187
158
219
190
181
185
168
40
24
32
32
30
23
29
36
38
34
38
36
35
27
26
34
72
34
122
153
148
149
148
149
148
146
147
144
142
141
138
137
134
135
132
118
123
126
125
125
121
118
118
120
121
120
121
123
117
117
118
118
119
121
118
118
119
119
119
117
119
114
114
120
119
114
114
112
107
104
105
109
105
111
109
104
103
100
104
106
101
102
63
24
21
19
33
114
175
193
191
160
196
215
200
181
187
139
24
24
54
49
23
24
30
34
34
41
40
32
30
28
26
40
132
123
119
153
150
151
150
147
146
145
143
139
138
136
135
134
135
134
132
118
124
124
125
123
122
118
118
115
115
117
118
119
114
115
118
116
119
123
119
118
118
118
118
120
122
113
113
118
117
114
111
109
110
110
104
103
105
111
107
104
105
102
102
102
101
89
49
24
23
25
39
144
177
190
203
135
227
202
201
184
187
96
22
35
64
63
21
28
32
36
36
37
35
33
34
32
27
60
132
138
153
152
150
150
149
150
150
149
148
146
142
139
137
135
135
137
138
117
121
124
122
121
122
120
121
117
115
117
117
117
116
119
119
114
117
120
118
117
117
116
117
121
121
115
117
116
113
112
110
109
108
107
108
100
102
106
106
102
105
104
102
101
102
71
46
26
22
27
52
170
197
201
209
151
225
188
189
186
178
52
22
67
72
58
26
31
34
37
37
40
39
36
33
32
32
101
146
139
145
148
149
150
150
148
149
149
149
147
146
146
144
143
141
147
140
117
121
123
123
122
121
118
118
116
117
119
118
114
116
120
116
116
120
116
115
115
115
115
116
119
121
122
120
116
111
109
107
109
105
103
110
99
102
104
104
101
100
98
98
101
92
38
43
31
25
29
46
167
210
204
203
157
195
179
183
186
156
28
45
82
47
28
30
35
41
43
43
37
35
35
33
32
47
133
155
156
151
149
149
150
149
149
147
145
144
144
145
146
147
145
141
144
140
120
121
124
122
122
122
123
121
114
117
118
117
114
115
118
117
118
118
115
113
113
115
118
117
119
121
121
119
116
115
110
106
108
106
107
107
101
104
105
102
101
99
94
94
94
53
23
39
28
30
34
37
155
212
194
177
144
180
183
179
184
130
26
52
46
34
33
37
43
46
43
37
35
36
36
33
35
93
149
151
150
151
148
146
145
145
144
144
145
146
146
146
145
144
143
143
145
139
121
123
123
119
121
122
124
120
114
115
115
116
115
112
113
117
116
116
117
116
113
115
118
119
122
122
116
114
112
110
108
109
109
106
110
105
99
101
100
100
96
95
94
96
85
22
23
33
23
31
36
33
143
208
183
130
122
176
187
179
179
105
23
37
36
34
35
36
38
40
39
36
35
36
34
30
75
132
152
150
148
150
149
147
143
143
141
144
146
147
144
142
142
143
143
142
144
138
122
127
125
120
118
120
122
119
115
114
115
116
115
114
114
116
114
115
115
114
111
116
114
117
121
120
112
113
113
109
109
110
106
103
105
105
106
98
98
97
97
96
94
92
77
18
19
33
26
24
35
33
146
176
160
77
100
169
178
183
175
87
32
37
35
34
34
36
40
40
39
37
37
39
34
40
113
152
161
153
151
150
147
144
145
145
146
145
145
144
144
143
142
145
145
143
145
138
119
127
128
124
121
122
117
115
112
113
113
113
115
112
114
112
109
114
115
112
116
118
112
115
117
110
109
110
113
107
105
108
107
101
100
102
97
96
95
93
94
94
92
87
55
26
23
26
33
28
32
30
76
119
159
81
84
171
176
177
172
78
36
32
32
34
38
42
39
37
39
39
41
38
33
45
136
157
156
153
151
148
148
149
149
147
145
142
142
141
141
143
144
142
140
141
143
139
117
126
128
124
121
118
117
113
109
112
110
115
116
109
107
106
110
113
116
109
115
117
112
114
113
109
107
109
111
113
106
103
100
100
97
101
94
94
92
92
91
92
89
75
34
28
23
24
28
30
32
28
22
111
170
113
55
160
177
185
147
55
32
34
35
37
43
41
36
38
39
41
40
34
28
53
149
157
154
150
148
150
150
149
147
146
146
144
142
144
145
144
142
142
141
141
143
139
115
120
119
121
121
118
116
118
113
111
113
117
117
116
112
106
110
112
118
116
114
114
114
114
114
113
111
108
110
110
103
100
99
97
98
97
91
94
94
93
90
93
93
53
27
28
24
19
23
28
30
27
17
64
134
162
142
129
157
171
89
37
35
35
39
43
42
40
39
41
44
41
35
25
24
100
157
154
153
153
152
151
147
146
145
144
144
147
148
148
146
145
144
144
143
143
144
139
116
115
118
119
118
118
115
116
113
110
114
115
112
116
115
111
113
110
114
114
109
110
111
113
114
115
110
110
108
108
103
102
101
95
96
94
90
92
94
94
88
84
63
24
17
20
24
29
25
23
24
26
32
104
159
170
172
170
145
107
44
36
36
43
46
42
40
41
44
43
43
39
26
22
24
103
153
154
156
154
151
147
146
145
145
147
150
148
144
143
141
142
144
145
145
144
145
140
116
118
124
120
118
119
115
115
113
113
112
110
109
112
116
115
112
112
115
115
108
112
110
111
109
108
107
108
108
109
102
102
99
94
92
91
89
89
88
73
49
27
21
22
24
28
27
25
27
27
25
39
115
152
164
184
194
200
174
62
35
40
44
44
42
39
42
45
45
41
37
29
17
21
28
129
156
153
150
149
146
146
145
147
147
145
143
143
141
140
140
146
150
148
145
143
145
139
117
118
116
117
118
121
121
114
113
115
114
113
114
113
113
111
111
113
113
112
108
112
109
110
108
108
104
106
109
108
105
104
98
93
91
87
78
55
36
20
29
75
121
81
27
29
25
24
20
23
28
108
163
166
166
194
202
162
84
30
32
36
43
42
41
42
45
45
41
35
29
23
16
21
35
142
151
148
147
147
146
147
145
143
141
143
142
140
139
145
148
147
145
145
143
141
142
138
121
123
118
117
120
120
120
116
113
114
114
114
112
113
113
109
106
110
113
115
111
110
107
108
109
108
106
109
108
107
106
106
100
86
67
45
24
24
66
112
146
162
163
66
23
20
17
21
15
14
66
158
182
195
204
204
148
39
23
26
34
41
45
43
42
45
45
42
36
28
22
22
18
20
63
150
147
148
147
146
144
143
142
142
141
140
139
143
147
148
144
142
143
143
142
140
142
138
120
125
122
117
121
118
117
118
112
110
110
110
111
110
110
110
108
112
111
112
115
110
106
106
106
107
100
98
103
105
101
85
60
34
19
41
91
126
154
159
162
166
166
55
20
25
31
23
13
13
112
171
187
201
197
130
52
28
24
27
34
46
46
43
47
45
39
36
30
19
15
20
20
18
98
156
151
147
143
141
139
139
141
142
140
142
148
150
147
143
142
143
142
141
141
141
142
137
118
124
122
117
120
117
117
117
114
111
110
107
109
110
108
110
114
112
108
107
110
109
109
106
106
106
102
102
95
76
46
22
17
46
100
143
160
160
162
162
166
170
133
32
28
35
36
25
13
14
127
172
191
180
100
38
35
34
30
32
44
46
45
49
46
42
37
33
24
16
14
14
18
20
64
149
153
149
149
147
146
146
143
142
146
150
146
142
143
143
141
140
139
140
139
140
141
136
120
124
118
115
115
116
113
114
114
113
111
103
107
112
111
108
112
112
110
107
106
104
105
105
103
101
86
61
30
14
18
58
110
141
152
151
158
158
157
160
161
157
52
24
25
29
32
28
19
14
130
177
157
68
31
24
26
34
33
42
46
44
49
49
42
40
38
33
24
19
15
14
14
16
16
72
143
152
151
151
148
142
144
149
146
143
142
141
142
142
140
140
141
144
144
141
139
136
120
120
116
114
115
114
114
116
115
111
110
103
110
113
111
106
111
111
111
107
102
103
103
90
69
42
19
11
42
79
123
150
154
154
155
156
160
162
161
160
163
157
46
18
20
28
28
23
20
15
113
133
54
26
27
24
25
31
40
46
46
49
49
44
38
47
129
138
79
30
19
18
15
15
14
17
73
147
150
145
145
148
146
143
141
144
144
142
141
141
140
140
140
139
139
139
141
139
119
119
120
116
113
114
114
115
118
115
112
105
112
110
112
106
107
107
109
104
95
80
52
23
12
13
44
103
141
151
152
154
156
157
154
151
154
158
165
163
160
148
38
15
17
26
21
16
13
23
81
46
31
26
25
26
27
36
45
45
49
48
45
42
48
128
184
185
175
137
71
27
20
18
16
11
16
97
149
149
147
143
144
143
143
144
141
140
137
137
138
138
137
136
139
143
147
141
117
116
117
111
113
114
113
114
118
119
114
114
113
110
106
104
105
103
90
62
31
15
14
27
69
113
144
153
153
155
156
155
153
155
155
159
157
155
155
160
165
110
23
27
66
110
59
13
30
83
44
37
34
26
27
30
35
44
43
45
46
45
43
55
128
178
183
184
188
186
174
117
46
21
18
14
16
39
135
147
145
148
148
146
144
141
141
145
146
143
139
139
140
139
143
143
139
137
117
118
116
113
120
116
112
117
117
118
112
113
110
105
99
95
74
45
23
14
13
37
84
127
148
150
154
156
154
152
152
152
156
157
157
159
158
160
160
161
155
71
86
99
116
106
93
35
73
56
33
37
35
28
27
32
41
43
43
44
44
45
74
146
189
188
185
183
180
182
186
185
164
109
39
20
23
29
75
145
151
150
146
144
145
144
142
139
139
141
141
143
143
141
139
138
139
138
117
123
117
116
122
124
121
118
116
113
108
114
104
87
57
30
13
12
20
60
110
139
150
151
152
154
154
155
155
154
153
152
153
152
152
155
157
159
161
163
151
87
75
62
58
107
90
58
46
26
33
37
36
28
30
38
41
43
43
45
52
110
172
185
188
194
190
188
187
187
184
180
183
184
158
85
24
23
30
113
150
148
149
148
147
146
146
145
146
145
144
141
143
146
146
147
143
137
118
122
122
121
122
125
121
117
115
113
102
79
46
23
11
13
46
88
126
147
153
159
159
157
156
154
153
156
156
156
154
153
153
152
151
151
152
154
155
153
107
35
16
17
25
30
73
66
32
27
32
35
34
32
35
37
39
42
45
62
130
181
190
186
180
184
191
185
182
171
176
187
182
175
183
177
119
42
23
69
142
143
145
146
145
145
147
147
145
142
144
142
140
141
140
143
142
137
118
121
123
122
119
119
117
112
92
60
32
15
12
12
34
101
148
159
158
158
162
164
158
154
156
159
157
153
152
152
155
155
152
153
152
151
152
145
146
147
55
15
14
16
25
20
26
52
31
28
28
30
33
33
34
35
37
43
81
132
169
174
174
171
171
170
173
186
184
168
161
175
190
180
169
175
181
140
52
84
147
148
143
141
144
146
147
147
147
144
141
141
144
144
143
142
143
138
121
123
124
124
118
106
79
46
23
14
11
11
12
60
134
162
163
161
161
162
159
158
158
160
158
155
152
154
155
154
154
154
157
161
164
159
144
140
144
127
29
16
17
21
27
19
12
21
25
29
26
32
35
35
36
36
47
111
173
167
170
170
162
164
158
155
156
170
181
173
168
178
189
186
176
170
180
184
161
134
148
154
153
151
147
140
142
146
146
147
147
147
147
144
143
142
143
139
119
121
115
93
61
30
16
12
10
7
8
14
64
146
163
162
165
163
161
161
162
164
162
159
157
159
160
161
160
159
161
164
164
161
159
156
129
145
151
79
17
20
26
31
34
22
13
21
24
34
29
34
35
32
38
87
148
177
190
181
167
180
175
162
160
164
165
168
177
174
165
177
186
189
188
177
172
181
182
165
142
146
145
146
149
150
146
141
144
147
148
148
149
151
149
142
142
139
100
77
45
19
12
11
10
10
11
12
13
66
148
169
160
166
165
159
161
164
164
162
157
160
161
159
157
154
156
160
160
159
156
158
163
165
146
122
135
40
52
47
33
35
37
28
20
29
28
39
33
31
30
56
122
163
179
180
195
185
171
175
185
180
173
177
179
181
184
183
180
182
194
191
184
187
171
167
174
179
167
146
147
149
149
148
149
152
149
148
149
149
149
153
158
158
146
137
24
15
12
10
9
9
9
9
10
14
42
148
165
174
159
164
156
164
168
165
162
163
167
165
162
158
163
164
163
157
159
167
173
177
176
147
70
38
63
128
172
173
157
112
70
36
51
32
30
37
32
28
57
128
183
188
178
178
192
186
181
177
179
186
183
184
185
189
194
192
185
191
193
192
185
185
183
166
164
171
172
154
143
139
138
143
148
150
151
149
146
146
146
148
153
147
147
142
12
11
10
10
9
10
10
10
11
22
117
174
169
172
159
155
155
166
164
164
167
169
165
162
162
166
168
166
164
168
173
177
177
175
144
55
36
34
136
178
188
188
189
191
182
106
111
35
33
30
29
53
112
132
168
179
178
176
190
190
181
180
180
183
190
189
191
197
205
202
188
186
192
191
186
184
188
179
169
174
175
162
156
156
151
148
150
147
146
146
148
149
148
149
149
148
153
157
10
10
10
10
10
11
11
11
16
75
166
174
170
165
159
153
153
160
158
166
169
167
163
166
167
167
165
166
170
173
175
174
173
125
51
87
127
58
162
181
187
185
174
179
184
117
101
36
32
57
93
115
133
145
166
174
179
174
186
188
185
180
181
182
191
193
203
197
195
198
201
192
190
190
187
185
192
184
183
178
177
170
158
162
159
152
148
146
152
154
152
146
144
138
135
143
150
150
10
10
11
11
13
14
14
16
34
138
176
178
167
158
151
151
150
155
155
166
166
167
171
171
165
163
169
172
172
170
170
166
117
80
143
182
178
112
151
179
186
185
167
179
182
139
103
55
92
129
141
143
137
162
165
160
176
174
188
189
191
179
185
188
190
192
200
200
194
194
197
201
196
190
189
189
192
184
184
183
178
170
155
153
159
161
160
157
149
147
151
148
143
140
148
142
145
141
11
12
15
17
18
20
23
27
87
165
177
182
159
151
143
149
148
154
153
157
157
169
174
168
170
173
174
171
171
173
173
111
51
150
178
178
180
168
104
167
184
188
176
186
183
153
112
132
149
149
150
139
150
172
176
172
173
173
184
190
192
182
176
183
188
191
196
201
198
194
194
197
200
198
192
193
192
184
184
182
179
169
153
145
145
155
162
164
158
152
148
153
160
150
148
145
136
134
13
14
17
21
24
26
29
40
130
170
178
184
167
145
140
138
145
152
154
152
152
165
166
170
176
179
174
169
172
172
117
44
105
173
178
183
186
187
100
111
173
189
183
185
152
113
143
174
177
167
147
143
161
183
186
186
164
160
179
186
191
190
180
180
186
191
195
198
200
199
196
196
197
198
195
194
189
185
183
182
179
167
162
165
160
153
148
152
157
161
159
151
154
153
146
149
147
138
17
22
25
26
27
26
31
77
154
177
178
182
176
153
135
136
141
149
154
150
151
160
160
174
178
175
171
177
173
112
52
63
143
176
179
179
185
185
146
40
104
158
188
180
88
50
131
180
184
180
166
151
162
188
190
188
157
162
177
182
187
192
185
183
186
190
191
195
197
200
199
198
198
198
199
191
186
184
183
182
179
168
156
166
170
167
162
155
149
153
161
160
156
157
154
148
154
147
26
30
29
29
29
29
36
125
169
180
174
180
179
162
127
131
141
146
150
150
148
153
156
173
175
172
178
161
91
64
95
145
177
170
169
172
174
177
174
63
30
49
125
167
112
34
40
128
185
181
179
173
168
186
193
190
166
164
175
178
180
185
186
185
186
188
189
189
190
195
196
194
195
193
190
187
185
184
183
180
177
164
158
161
155
158
162
164
158
152
148
152
154
159
164
152
150
150
30
31
29
29
30
31
59
158
176
182
178
172
177
172
129
124
134
145
149
147
142
151
154
168
172
175
177
91
79
86
127
150
126
91
121
137
161
169
175
108
29
39
44
57
50
33
33
45
147
183
181
180
180
182
197
197
173
157
170
176
177
180
182
182
184
185
185
185
186
188
187
185
184
184
184
185
184
184
179
171
163
159
164
167
170
168
161
161
164
167
166
161
152
154
163
163
153
148
31
32
32
32
30
31
94
174
181
182
184
177
171
173
141
124
128
146
151
145
139
147
153
162
167
176
134
72
89
94
95
88
82
75
68
64
63
97
122
78
48
55
56
59
53
37
34
36
65
169
181
181
180
182
194
199
184
152
167
171
176
177
179
180
181
183
184
184
185
185
186
185
185
186
184
181
180
180
168
157
170
176
170
161
156
157
169
179
176
174
175
179
175
170
165
157
156
151
31
33
33
32
31
36
127
181
182
181
181
179
174
172
160
124
126
146
151
144
141
145
152
161
157
163
70
80
91
92
85
79
77
72
65
58
50
46
51
54
62
67
69
67
62
50
37
39
38
115
183
183
182
181
184
195
191
164
167
169
172
177
179
180
180
182
182
181
182
184
185
186
188
184
179
177
173
166
172
173
165
164
167
169
170
167
156
157
167
170
169
171
175
176
175
180
177
167
31
32
31
32
33
45
146
181
177
184
184
186
187
187
186
147
119
144
155
143
143
145
150
159
151
103
47
70
74
73
69
68
67
61
51
48
45
53
62
69
70
69
71
66
62
60
45
37
34
55
169
183
182
181
180
181
176
169
168
169
170
176
179
179
178
181
184
184
184
185
186
186
186
180
175
165
162
165
173
176
179
172
165
165
166
165
165
159
153
152
161
163
162
166
167
173
181
174
31
31
31
32
32
64
163
192
188
194
197
195
190
187
188
180
130
139
160
146
137
151
151
158
128
43
49
56
58
61
62
61
54
45
41
49
61
70
73
75
72
72
71
67
62
59
49
36
33
37
138
186
181
180
177
172
164
155
160
175
173
175
179
179
179
184
188
187
187
186
186
184
182
173
164
170
174
169
169
168
168
169
171
170
174
180
180
173
164
156
155
162
168
167
163
164
167
169
30
29
31
33
34
94
167
187
197
200
197
195
187
163
132
93
93
127
159
147
139
156
154
150
81
37
45
49
51
54
57
51
41
37
54
81
91
86
77
75
71
70
66
62
59
54
47
38
33
34
106
185
177
172
169
168
171
177
176
173
180
179
178
176
181
184
187
186
184
184
183
176
168
166
174
175
178
177
169
168
178
181
177
176
170
161
162
172
178
172
165
163
154
153
156
156
155
162
30
30
31
33
36
138
169
172
200
198
176
140
84
38
28
27
58
118
150
151
143
160
154
105
41
43
47
46
45
48
45
37
33
44
79
104
105
93
81
73
68
62
57
53
50
46
41
38
34
37
101
175
168
171
178
180
182
184
179
172
173
174
175
179
183
184
186
183
179
175
171
172
174
176
173
172
174
175
173
173
175
184
181
180
182
181
176
170
161
163
165
164
163
157
156
157
159
163
31
31
31
33
39
143
173
148
128
81
39
28
28
26
25
26
40
73
113
156
151
164
141
45
36
42
43
41
41
41
34
31
65
75
97
107
105
88
76
67
61
56
51
47
43
40
38
39
46
93
150
179
185
189
191
191
190
189
186
186
181
176
175
175
178
178
175
167
161
169
182
180
177
179
178
173
172
172
169
171
173
175
177
178
176
181
186
187
182
168
153
151
162
166
165
167
169
166
30
32
33
33
40
98
61
36
31
30
29
27
27
25
25
27
34
65
74
124
160
163
80
30
36
39
40
37
35
31
32
59
149
84
100
103
96
81
72
64
58
53
47
43
39
38
48
99
155
184
181
181
184
185
186
183
180
181
182
182
182
182
178
175
173
173
176
180
177
174
176
178
177
176
175
170
170
172
170
168
169
169
171
170
170
169
170
175
181
185
178
160
150
159
166
165
162
163
30
33
34
34
36
48
32
33
31
28
26
26
28
29
28
28
30
56
71
93
156
122
34
35
38
37
36
33
31
28
36
131
163
78
97
97
88
76
67
60
53
48
42
38
47
103
164
192
188
180
176
179
181
180
178
181
186
186
179
179
181
186
192
193
189
187
188
196
198
198
197
194
191
188
182
180
173
170
174
165
168
172
168
168
169
169
168
166
169
180
187
187
174
159
154
155
159
163
32
35
36
34
33
30
30
31
31
30
28
29
30
30
28
28
28
38
60
81
109
52
31
38
36
34
33
29
29
29
67
174
141
76
93
92
82
71
63
56
48
43
40
72
153
195
198
187
178
179
185
185
183
180
186
185
178
178
188
195
198
195
192
190
188
185
185
186
187
187
186
183
184
182
177
173
174
171
176
172
167
176
173
170
169
171
170
169
167
164
171
181
190
190
180
166
162
163
30
34
35
35
32
32
31
31
30
30
30
30
29
29
27
28
28
29
30
62
51
33
38
45
40
36
31
29
30
32
117
184
119
73
89
86
78
68
58
52
41
43
84
182
195
191
188
183
183
188
186
185
185
186
181
178
191
198
195
188
182
179
180
179
181
182
179
176
176
179
182
178
171
169
171
173
177
177
174
176
171
172
174
170
170
172
168
166
166
165
163
163
173
181
190
196
193
167
28
33
33
35
33
32
30
30
29
29
29
29
29
29
28
28
28
28
28
38
34
35
47
48
44
38
35
33
33
44
152
185
99
73
85
84
75
66
54
45
39
70
180
200
189
189
192
188
187
186
182
184
180
178
188
201
198
190
180
177
178
179
182
180
178
174
174
177
182
181
171
168
173
176
176
180
183
180
176
180
173
170
174
174
172
176
177
176
176
171
170
169
165
165
168
174
181
168
28
31
31
32
33
32
31
31
31
32
32
31
31
30
30
29
29
28
29
39
34
42
50
49
46
41
38
35
37
80
166
185
82
76
84
83
74
65
54
44
46
143
187
189
187
187
195
191
191
189
186
185
184
199
203
191
179
177
179
184
187
186
181
178
181
181
181
181
175
170
169
170
174
178
182
184
182
179
174
173
175
174
178
179
176
170
164
166
169
170
171
173
173
173
170
167
166
163
28
32
30
31
33
33
33
32
33
32
32
31
31
31
30
30
29
29
28
30
38
48
49
47
47
43
39
35
40
125
173
179
68
81
84
83
74
65
55
43
65
166
172
181
185
183
194
190
193
192
194
196
202
199
183
176
180
189
193
189
184
182
181
179
180
182
177
171
174
182
186
186
180
175
170
169
171
175
176
172
167
168
168
166
163
163
167
173
173
170
168
167
164
164
164
165
167
162
28
32
32
33
35
35
36
34
33
32
32
32
32
32
30
30
32
32
30
32
43
51
49
49
48
41
35
35
85
152
177
156
60
72
79
81
75
67
56
45
100
187
172
179
182
182
193
184
185
194
195
194
197
178
185
192
197
193
186
181
177
175
178
181
177
173
174
188
197
196
194
189
188
189
189
187
181
172
167
166
166
162
161
163
167
172
174
170
169
168
165
166
166
167
169
167
167
163
29
31
33
33
35
34
34
33
32
32
33
32
32
35
36
35
33
34
31
37
50
51
50
48
42
35
31
42
129
152
180
126
56
68
78
79
74
66
53
49
128
191
181
183
179
181
184
176
193
193
186
194
189
193
199
193
187
183
178
175
177
179
183
183
180
189
197
196
190
186
186
185
184
185
184
182
184
185
184
179
173
164
160
162
163
164
164
164
167
170
169
167
165
160
161
164
164
162
29
31
33
33
33
33
33
32
32
32
34
33
32
38
40
37
33
32
33
41
48
48
49
45
36
32
26
63
138
150
178
85
57
72
80
79
75
64
52
52
135
175
177
184
182
175
176
183
193
188
182
192
192
192
195
189
185
180
179
181
184
186
181
183
196
197
190
185
180
181
182
184
183
183
183
184
183
184
184
185
187
186
183
179
176
167
160
159
163
165
164
164
164
163
160
158
158
162
28
30
32
34
33
33
33
33
32
32
35
34
34
36
38
34
32
30
32
42
46
46
44
39
32
26
15
54
105
145
151
59
63
77
84
79
74
65
53
53
153
166
153
164
175
164
181
184
181
194
178
188
179
190
193
190
187
185
186
189
187
181
187
193
189
183
182
183
180
180
181
177
177
178
182
186
185
184
183
183
182
179
177
178
182
181
178
169
162
163
165
166
167
167
168
164
163
160
27
27
29
33
33
33
33
32
32
31
35
35
34
35
35
34
33
29
31
40
43
42
39
33
28
15
13
25
50
124
107
56
71
82
85
80
76
66
53
66
171
169
168
170
164
161
182
169
181
198
178
174
176
187
195
189
188
190
193
190
184
187
189
187
184
186
182
182
179
176
176
181
184
182
178
174
175
179
182
184
184
184
182
178
179
178
178
178
173
164
161
166
169
170
170
171
170
163
